G04 EAGLE Gerber RS-274X export*
G75*
%MOMM*%
%FSLAX34Y34*%
%LPD*%
%INSilkscreen Top*%
%IPPOS*%
%AMOC8*
5,1,8,0,0,1.08239X$1,22.5*%
G01*
%ADD10C,0.152400*%
%ADD11C,0.127000*%
%ADD12C,0.203200*%
%ADD13R,1.519900X0.490200*%
%ADD14C,0.101600*%
%ADD15R,0.127000X1.270000*%
%ADD16C,0.254000*%


D10*
X77350Y550400D02*
X90050Y550400D01*
X96400Y544050D01*
X102750Y550400D01*
X115450Y550400D01*
X121800Y544050D01*
X77350Y550400D02*
X71000Y544050D01*
X121800Y544050D02*
X128150Y550400D01*
X140850Y550400D01*
X147200Y544050D01*
X153550Y550400D02*
X166250Y550400D01*
X172600Y544050D01*
X178950Y550400D01*
X191650Y550400D01*
X198000Y544050D01*
X153550Y550400D02*
X147200Y544050D01*
X198000Y544050D02*
X204350Y550400D01*
X217050Y550400D01*
X223400Y544050D01*
X96400Y505950D02*
X90050Y499600D01*
X115450Y499600D02*
X121800Y505950D01*
X115450Y499600D02*
X102750Y499600D01*
X96400Y505950D01*
X71000Y505950D02*
X71000Y544050D01*
X71000Y505950D02*
X77350Y499600D01*
X90050Y499600D01*
X140850Y499600D02*
X147200Y505950D01*
X140850Y499600D02*
X128150Y499600D01*
X121800Y505950D01*
X166250Y499600D02*
X172600Y505950D01*
X191650Y499600D02*
X198000Y505950D01*
X191650Y499600D02*
X178950Y499600D01*
X172600Y505950D01*
X153550Y499600D02*
X147200Y505950D01*
X153550Y499600D02*
X166250Y499600D01*
X217050Y499600D02*
X223400Y505950D01*
X217050Y499600D02*
X204350Y499600D01*
X198000Y505950D01*
X242450Y550400D02*
X248800Y544050D01*
X242450Y550400D02*
X229750Y550400D01*
X223400Y544050D01*
X223400Y505950D02*
X229750Y499600D01*
X242450Y499600D01*
X248800Y505950D01*
X255150Y550400D02*
X267850Y550400D01*
X274200Y544050D01*
X280550Y550400D01*
X293250Y550400D01*
X299600Y544050D01*
X255150Y550400D02*
X248800Y544050D01*
X299600Y544050D02*
X305950Y550400D01*
X318650Y550400D01*
X325000Y544050D01*
X331350Y550400D02*
X344050Y550400D01*
X350400Y544050D01*
X356750Y550400D01*
X369450Y550400D01*
X375800Y544050D01*
X331350Y550400D02*
X325000Y544050D01*
X375800Y544050D02*
X382150Y550400D01*
X394850Y550400D01*
X401200Y544050D01*
X274200Y505950D02*
X267850Y499600D01*
X293250Y499600D02*
X299600Y505950D01*
X293250Y499600D02*
X280550Y499600D01*
X274200Y505950D01*
X255150Y499600D02*
X248800Y505950D01*
X255150Y499600D02*
X267850Y499600D01*
X318650Y499600D02*
X325000Y505950D01*
X318650Y499600D02*
X305950Y499600D01*
X299600Y505950D01*
X344050Y499600D02*
X350400Y505950D01*
X369450Y499600D02*
X375800Y505950D01*
X369450Y499600D02*
X356750Y499600D01*
X350400Y505950D01*
X331350Y499600D02*
X325000Y505950D01*
X331350Y499600D02*
X344050Y499600D01*
X394850Y499600D02*
X401200Y505950D01*
X394850Y499600D02*
X382150Y499600D01*
X375800Y505950D01*
X420250Y550400D02*
X426600Y544050D01*
X420250Y550400D02*
X407550Y550400D01*
X401200Y544050D01*
X401200Y505950D02*
X407550Y499600D01*
X420250Y499600D01*
X426600Y505950D01*
X432950Y550400D02*
X445650Y550400D01*
X452000Y544050D01*
X458350Y550400D01*
X471050Y550400D01*
X477400Y544050D01*
X432950Y550400D02*
X426600Y544050D01*
X477400Y544050D02*
X483750Y550400D01*
X496450Y550400D01*
X502800Y544050D01*
X509150Y550400D02*
X521850Y550400D01*
X528200Y544050D01*
X534550Y550400D01*
X547250Y550400D01*
X553600Y544050D01*
X509150Y550400D02*
X502800Y544050D01*
X553600Y544050D02*
X559950Y550400D01*
X572650Y550400D01*
X452000Y505950D02*
X445650Y499600D01*
X471050Y499600D02*
X477400Y505950D01*
X471050Y499600D02*
X458350Y499600D01*
X452000Y505950D01*
X432950Y499600D02*
X426600Y505950D01*
X432950Y499600D02*
X445650Y499600D01*
X496450Y499600D02*
X502800Y505950D01*
X496450Y499600D02*
X483750Y499600D01*
X477400Y505950D01*
X521850Y499600D02*
X528200Y505950D01*
X547250Y499600D02*
X553600Y505950D01*
X547250Y499600D02*
X534550Y499600D01*
X528200Y505950D01*
X509150Y499600D02*
X502800Y505950D01*
X509150Y499600D02*
X521850Y499600D01*
X559950Y499600D02*
X572650Y499600D01*
X559950Y499600D02*
X553600Y505950D01*
X579000Y505950D02*
X579000Y544050D01*
X572650Y550400D01*
X579000Y505950D02*
X572650Y499600D01*
D11*
X83068Y495165D02*
X79255Y491352D01*
X83068Y495165D02*
X83068Y483725D01*
X79255Y483725D02*
X86882Y483725D01*
D12*
X561050Y396600D02*
X604650Y396600D01*
X609650Y396600D01*
X609650Y348600D02*
X604650Y348600D01*
X561050Y348600D01*
X604650Y348600D02*
X604650Y396600D01*
D13*
X618251Y353550D03*
X618251Y366250D03*
X618251Y378950D03*
X618251Y391650D03*
X552450Y391650D03*
X552450Y378950D03*
X552450Y366250D03*
X552450Y353550D03*
D14*
X550933Y401303D02*
X550933Y408930D01*
X550933Y401303D02*
X552458Y399778D01*
X555509Y399778D01*
X557034Y401303D01*
X557034Y408930D01*
X560288Y405879D02*
X563339Y408930D01*
X563339Y399778D01*
X566389Y399778D02*
X560288Y399778D01*
X631261Y419781D02*
X631261Y428932D01*
X635836Y428932D01*
X637362Y427407D01*
X637362Y424356D01*
X635836Y422831D01*
X631261Y422831D01*
X634311Y422831D02*
X637362Y419781D01*
X640616Y425882D02*
X643666Y428932D01*
X643666Y419781D01*
X640616Y419781D02*
X646717Y419781D01*
X596784Y345747D02*
X598309Y344222D01*
X596784Y345747D02*
X593733Y345747D01*
X592208Y344222D01*
X592208Y338121D01*
X593733Y336596D01*
X596784Y336596D01*
X598309Y338121D01*
X601563Y342697D02*
X604614Y345747D01*
X604614Y336596D01*
X607664Y336596D02*
X601563Y336596D01*
X631261Y445181D02*
X631261Y454332D01*
X635836Y454332D01*
X637362Y452807D01*
X637362Y449756D01*
X635836Y448231D01*
X631261Y448231D01*
X634311Y448231D02*
X637362Y445181D01*
X640616Y445181D02*
X646717Y445181D01*
X640616Y445181D02*
X646717Y451282D01*
X646717Y452807D01*
X645192Y454332D01*
X642141Y454332D01*
X640616Y452807D01*
X542361Y345747D02*
X542361Y336596D01*
X542361Y345747D02*
X546936Y345747D01*
X548462Y344222D01*
X548462Y341171D01*
X546936Y339646D01*
X542361Y339646D01*
X545411Y339646D02*
X548462Y336596D01*
X551716Y344222D02*
X553241Y345747D01*
X556292Y345747D01*
X557817Y344222D01*
X557817Y342697D01*
X556292Y341171D01*
X554766Y341171D01*
X556292Y341171D02*
X557817Y339646D01*
X557817Y338121D01*
X556292Y336596D01*
X553241Y336596D01*
X551716Y338121D01*
D10*
X582150Y303650D02*
X582150Y290950D01*
X582150Y303650D02*
X588500Y310000D01*
X601200Y310000D01*
X607550Y303650D01*
X601200Y284600D02*
X588500Y284600D01*
X582150Y290950D01*
X601200Y284600D02*
X607550Y290950D01*
X607550Y303650D02*
X613900Y310000D01*
X626600Y310000D01*
X632950Y303650D01*
X626600Y284600D02*
X613900Y284600D01*
X607550Y290950D01*
X626600Y284600D02*
X632950Y290950D01*
X632950Y303650D01*
D12*
X552464Y302060D02*
X550430Y304094D01*
X546363Y304094D01*
X544329Y302060D01*
X544329Y293925D01*
X546363Y291892D01*
X550430Y291892D01*
X552464Y293925D01*
X557426Y291892D02*
X557426Y304094D01*
X565561Y304094D01*
X561494Y297993D02*
X557426Y297993D01*
X576625Y304094D02*
X578658Y302060D01*
X576625Y304094D02*
X572557Y304094D01*
X570524Y302060D01*
X570524Y293925D01*
X572557Y291892D01*
X576625Y291892D01*
X578658Y293925D01*
X578658Y297993D01*
X574591Y297993D01*
D10*
X75700Y182700D02*
X75700Y157300D01*
X98560Y157300D01*
X101100Y159840D01*
X103640Y157300D01*
X123960Y157300D01*
X126500Y159840D01*
X129040Y157300D01*
X149360Y157300D01*
X151900Y159840D01*
X154440Y157300D01*
X174760Y157300D01*
X177300Y159840D01*
X179840Y157300D01*
X177300Y180160D02*
X179840Y182700D01*
X177300Y180160D02*
X174760Y182700D01*
X154440Y182700D01*
X151900Y180160D01*
X149360Y182700D01*
X129040Y182700D01*
X126500Y180160D01*
X123960Y182700D01*
X103640Y182700D01*
X101100Y180160D01*
X98560Y182700D01*
X75700Y182700D01*
X179840Y157300D02*
X200160Y157300D01*
X202700Y159840D01*
X205240Y157300D01*
X225560Y157300D01*
X228100Y159840D01*
X230640Y157300D01*
X228100Y180160D02*
X230640Y182700D01*
X228100Y180160D02*
X225560Y182700D01*
X205240Y182700D01*
X202700Y180160D01*
X200160Y182700D01*
X179840Y182700D01*
X256040Y182700D02*
X276360Y182700D01*
X276360Y157300D02*
X256040Y157300D01*
X253500Y180160D02*
X250960Y182700D01*
X253500Y180160D02*
X256040Y182700D01*
X250960Y182700D02*
X230640Y182700D01*
X253500Y159840D02*
X256040Y157300D01*
X253500Y159840D02*
X250960Y157300D01*
X230640Y157300D01*
X304300Y157300D02*
X304300Y182700D01*
X281440Y182700D01*
X281440Y157300D02*
X304300Y157300D01*
X278900Y159840D02*
X276360Y157300D01*
X278900Y159840D02*
X281440Y157300D01*
X278900Y180160D02*
X281440Y182700D01*
X278900Y180160D02*
X276360Y182700D01*
D11*
X87768Y197315D02*
X83955Y193502D01*
X87768Y197315D02*
X87768Y185875D01*
X83955Y185875D02*
X91582Y185875D01*
X287155Y187782D02*
X289062Y185875D01*
X292875Y185875D01*
X294782Y187782D01*
X294782Y195408D01*
X292875Y197315D01*
X289062Y197315D01*
X287155Y195408D01*
X287155Y193502D01*
X289062Y191595D01*
X294782Y191595D01*
X118248Y187145D02*
X114435Y187145D01*
X116342Y187145D02*
X116342Y198585D01*
X118248Y198585D02*
X114435Y198585D01*
X122231Y198585D02*
X122231Y187145D01*
X126044Y194772D02*
X122231Y198585D01*
X126044Y194772D02*
X129857Y198585D01*
X129857Y187145D01*
X133925Y189052D02*
X133925Y198585D01*
X133925Y189052D02*
X135832Y187145D01*
X139645Y187145D01*
X141551Y189052D01*
X141551Y198585D01*
D10*
X187300Y377300D02*
X200000Y377300D01*
X212700Y377300D01*
X212700Y402700D02*
X200000Y402700D01*
X187300Y402700D01*
X212700Y381110D02*
X212700Y377300D01*
X212700Y398890D02*
X212700Y402700D01*
X187300Y402700D02*
X187300Y398890D01*
X187300Y381110D02*
X187300Y377300D01*
X200000Y402700D02*
X200307Y402696D01*
X200615Y402685D01*
X200922Y402667D01*
X201228Y402640D01*
X201534Y402607D01*
X201839Y402566D01*
X202142Y402518D01*
X202445Y402462D01*
X202746Y402400D01*
X203045Y402329D01*
X203343Y402252D01*
X203639Y402168D01*
X203932Y402076D01*
X204224Y401977D01*
X204512Y401871D01*
X204798Y401759D01*
X205082Y401639D01*
X205362Y401512D01*
X205639Y401379D01*
X205913Y401239D01*
X206184Y401093D01*
X206450Y400940D01*
X206713Y400780D01*
X206973Y400615D01*
X207228Y400443D01*
X207478Y400265D01*
X207725Y400081D01*
X207967Y399891D01*
X208204Y399695D01*
X208436Y399493D01*
X208663Y399286D01*
X208886Y399074D01*
X209103Y398856D01*
X209315Y398633D01*
X209521Y398405D01*
X209722Y398172D01*
X209917Y397934D01*
X200000Y402700D02*
X199693Y402696D01*
X199385Y402685D01*
X199078Y402667D01*
X198772Y402640D01*
X198466Y402607D01*
X198161Y402566D01*
X197858Y402518D01*
X197555Y402462D01*
X197254Y402400D01*
X196955Y402329D01*
X196657Y402252D01*
X196361Y402168D01*
X196068Y402076D01*
X195776Y401977D01*
X195488Y401871D01*
X195202Y401759D01*
X194918Y401639D01*
X194638Y401512D01*
X194361Y401379D01*
X194087Y401239D01*
X193816Y401093D01*
X193550Y400940D01*
X193287Y400780D01*
X193027Y400615D01*
X192772Y400443D01*
X192522Y400265D01*
X192275Y400081D01*
X192033Y399891D01*
X191796Y399695D01*
X191564Y399493D01*
X191337Y399286D01*
X191114Y399074D01*
X190897Y398856D01*
X190685Y398633D01*
X190479Y398405D01*
X190278Y398172D01*
X190083Y397934D01*
X200000Y377300D02*
X200307Y377304D01*
X200615Y377315D01*
X200922Y377333D01*
X201228Y377360D01*
X201534Y377393D01*
X201839Y377434D01*
X202142Y377482D01*
X202445Y377538D01*
X202746Y377600D01*
X203045Y377671D01*
X203343Y377748D01*
X203639Y377832D01*
X203932Y377924D01*
X204224Y378023D01*
X204512Y378129D01*
X204798Y378241D01*
X205082Y378361D01*
X205362Y378488D01*
X205639Y378621D01*
X205913Y378761D01*
X206184Y378907D01*
X206450Y379060D01*
X206713Y379220D01*
X206973Y379385D01*
X207228Y379557D01*
X207478Y379735D01*
X207725Y379919D01*
X207967Y380109D01*
X208204Y380305D01*
X208436Y380507D01*
X208663Y380714D01*
X208886Y380926D01*
X209103Y381144D01*
X209315Y381367D01*
X209521Y381595D01*
X209722Y381828D01*
X209917Y382066D01*
X200000Y377300D02*
X199693Y377304D01*
X199385Y377315D01*
X199078Y377333D01*
X198772Y377360D01*
X198466Y377393D01*
X198161Y377434D01*
X197858Y377482D01*
X197555Y377538D01*
X197254Y377600D01*
X196955Y377671D01*
X196657Y377748D01*
X196361Y377832D01*
X196068Y377924D01*
X195776Y378023D01*
X195488Y378129D01*
X195202Y378241D01*
X194918Y378361D01*
X194638Y378488D01*
X194361Y378621D01*
X194087Y378761D01*
X193816Y378907D01*
X193550Y379060D01*
X193287Y379220D01*
X193027Y379385D01*
X192772Y379557D01*
X192522Y379735D01*
X192275Y379919D01*
X192033Y380109D01*
X191796Y380305D01*
X191564Y380507D01*
X191337Y380714D01*
X191114Y380926D01*
X190897Y381144D01*
X190685Y381367D01*
X190479Y381595D01*
X190278Y381828D01*
X190083Y382066D01*
X200000Y384920D02*
X200140Y384922D01*
X200280Y384928D01*
X200420Y384937D01*
X200559Y384951D01*
X200698Y384968D01*
X200836Y384989D01*
X200974Y385014D01*
X201111Y385043D01*
X201247Y385075D01*
X201382Y385112D01*
X201516Y385152D01*
X201649Y385195D01*
X201781Y385243D01*
X201912Y385293D01*
X202041Y385348D01*
X202168Y385406D01*
X202294Y385467D01*
X202418Y385532D01*
X202540Y385601D01*
X202660Y385672D01*
X202778Y385747D01*
X202895Y385825D01*
X203009Y385907D01*
X203120Y385991D01*
X203229Y386079D01*
X203336Y386169D01*
X203441Y386263D01*
X203542Y386359D01*
X203641Y386458D01*
X203737Y386559D01*
X203831Y386664D01*
X203921Y386771D01*
X204009Y386880D01*
X204093Y386991D01*
X204175Y387105D01*
X204253Y387222D01*
X204328Y387340D01*
X204399Y387460D01*
X204468Y387582D01*
X204533Y387706D01*
X204594Y387832D01*
X204652Y387959D01*
X204707Y388088D01*
X204757Y388219D01*
X204805Y388351D01*
X204848Y388484D01*
X204888Y388618D01*
X204925Y388753D01*
X204957Y388889D01*
X204986Y389026D01*
X205011Y389164D01*
X205032Y389302D01*
X205049Y389441D01*
X205063Y389580D01*
X205072Y389720D01*
X205078Y389860D01*
X205080Y390000D01*
D15*
X219685Y390000D03*
D14*
X187554Y405240D02*
X187554Y414392D01*
X187554Y405240D02*
X193655Y405240D01*
X196909Y414392D02*
X203010Y414392D01*
X196909Y414392D02*
X196909Y405240D01*
X203010Y405240D01*
X199960Y409816D02*
X196909Y409816D01*
X206264Y414392D02*
X206264Y405240D01*
X210840Y405240D01*
X212366Y406765D01*
X212366Y412867D01*
X210840Y414392D01*
X206264Y414392D01*
X215620Y411341D02*
X218670Y414392D01*
X218670Y405240D01*
X215620Y405240D02*
X221721Y405240D01*
D10*
X124760Y398890D02*
X124660Y398888D01*
X124561Y398882D01*
X124461Y398872D01*
X124363Y398859D01*
X124264Y398841D01*
X124167Y398820D01*
X124071Y398795D01*
X123975Y398766D01*
X123881Y398733D01*
X123788Y398697D01*
X123697Y398657D01*
X123607Y398613D01*
X123519Y398566D01*
X123433Y398516D01*
X123349Y398462D01*
X123267Y398405D01*
X123188Y398345D01*
X123110Y398281D01*
X123036Y398215D01*
X122964Y398146D01*
X122895Y398074D01*
X122829Y398000D01*
X122765Y397922D01*
X122705Y397843D01*
X122648Y397761D01*
X122594Y397677D01*
X122544Y397591D01*
X122497Y397503D01*
X122453Y397413D01*
X122413Y397322D01*
X122377Y397229D01*
X122344Y397135D01*
X122315Y397039D01*
X122290Y396943D01*
X122269Y396846D01*
X122251Y396747D01*
X122238Y396649D01*
X122228Y396549D01*
X122222Y396450D01*
X122220Y396350D01*
X122220Y383650D02*
X122222Y383550D01*
X122228Y383451D01*
X122238Y383351D01*
X122251Y383253D01*
X122269Y383154D01*
X122290Y383057D01*
X122315Y382961D01*
X122344Y382865D01*
X122377Y382771D01*
X122413Y382678D01*
X122453Y382587D01*
X122497Y382497D01*
X122544Y382409D01*
X122594Y382323D01*
X122648Y382239D01*
X122705Y382157D01*
X122765Y382078D01*
X122829Y382000D01*
X122895Y381926D01*
X122964Y381854D01*
X123036Y381785D01*
X123110Y381719D01*
X123188Y381655D01*
X123267Y381595D01*
X123349Y381538D01*
X123433Y381484D01*
X123519Y381434D01*
X123607Y381387D01*
X123697Y381343D01*
X123788Y381303D01*
X123881Y381267D01*
X123975Y381234D01*
X124071Y381205D01*
X124167Y381180D01*
X124264Y381159D01*
X124363Y381141D01*
X124461Y381128D01*
X124561Y381118D01*
X124660Y381112D01*
X124760Y381110D01*
X155240Y381110D02*
X155340Y381112D01*
X155439Y381118D01*
X155539Y381128D01*
X155637Y381141D01*
X155736Y381159D01*
X155833Y381180D01*
X155929Y381205D01*
X156025Y381234D01*
X156119Y381267D01*
X156212Y381303D01*
X156303Y381343D01*
X156393Y381387D01*
X156481Y381434D01*
X156567Y381484D01*
X156651Y381538D01*
X156733Y381595D01*
X156812Y381655D01*
X156890Y381719D01*
X156964Y381785D01*
X157036Y381854D01*
X157105Y381926D01*
X157171Y382000D01*
X157235Y382078D01*
X157295Y382157D01*
X157352Y382239D01*
X157406Y382323D01*
X157456Y382409D01*
X157503Y382497D01*
X157547Y382587D01*
X157587Y382678D01*
X157623Y382771D01*
X157656Y382865D01*
X157685Y382961D01*
X157710Y383057D01*
X157731Y383154D01*
X157749Y383253D01*
X157762Y383351D01*
X157772Y383451D01*
X157778Y383550D01*
X157780Y383650D01*
X157780Y396350D02*
X157778Y396450D01*
X157772Y396549D01*
X157762Y396649D01*
X157749Y396747D01*
X157731Y396846D01*
X157710Y396943D01*
X157685Y397039D01*
X157656Y397135D01*
X157623Y397229D01*
X157587Y397322D01*
X157547Y397413D01*
X157503Y397503D01*
X157456Y397591D01*
X157406Y397677D01*
X157352Y397761D01*
X157295Y397843D01*
X157235Y397922D01*
X157171Y398000D01*
X157105Y398074D01*
X157036Y398146D01*
X156964Y398215D01*
X156890Y398281D01*
X156812Y398345D01*
X156733Y398405D01*
X156651Y398462D01*
X156567Y398516D01*
X156481Y398566D01*
X156393Y398613D01*
X156303Y398657D01*
X156212Y398697D01*
X156119Y398733D01*
X156025Y398766D01*
X155929Y398795D01*
X155833Y398820D01*
X155736Y398841D01*
X155637Y398859D01*
X155539Y398872D01*
X155439Y398882D01*
X155340Y398888D01*
X155240Y398890D01*
X127300Y398890D02*
X124760Y398890D01*
X127300Y398890D02*
X128570Y397620D01*
X127300Y381110D02*
X124760Y381110D01*
X127300Y381110D02*
X128570Y382380D01*
X151430Y397620D02*
X152700Y398890D01*
X151430Y397620D02*
X128570Y397620D01*
X151430Y382380D02*
X152700Y381110D01*
X151430Y382380D02*
X128570Y382380D01*
X152700Y398890D02*
X155240Y398890D01*
X155240Y381110D02*
X152700Y381110D01*
D14*
X120442Y402192D02*
X120442Y411090D01*
X124891Y411090D01*
X126374Y409607D01*
X126374Y406641D01*
X124891Y405158D01*
X120442Y405158D01*
X123408Y405158D02*
X126374Y402192D01*
X134012Y402192D02*
X134012Y411090D01*
X129563Y406641D01*
X135495Y406641D01*
D16*
X249200Y361750D02*
X350800Y361750D01*
X350800Y342700D01*
X350800Y298250D01*
X249200Y298250D01*
X249200Y342700D01*
X249200Y361750D01*
X249200Y342700D02*
X350800Y342700D01*
D14*
X249708Y368608D02*
X249708Y377760D01*
X254284Y377760D01*
X255809Y376235D01*
X255809Y374709D01*
X254284Y373184D01*
X255809Y371659D01*
X255809Y370133D01*
X254284Y368608D01*
X249708Y368608D01*
X249708Y373184D02*
X254284Y373184D01*
X259063Y368608D02*
X259063Y377760D01*
X262114Y374709D01*
X265164Y377760D01*
X265164Y368608D01*
X268418Y368608D02*
X268418Y377760D01*
X272994Y377760D01*
X274520Y376235D01*
X274520Y373184D01*
X272994Y371659D01*
X268418Y371659D01*
X277774Y374709D02*
X280824Y377760D01*
X280824Y368608D01*
X277774Y368608D02*
X283875Y368608D01*
X287129Y376235D02*
X288654Y377760D01*
X291705Y377760D01*
X293230Y376235D01*
X293230Y374709D01*
X291705Y373184D01*
X293230Y371659D01*
X293230Y370133D01*
X291705Y368608D01*
X288654Y368608D01*
X287129Y370133D01*
X287129Y371659D01*
X288654Y373184D01*
X287129Y374709D01*
X287129Y376235D01*
X288654Y373184D02*
X291705Y373184D01*
X296484Y370133D02*
X296484Y376235D01*
X298009Y377760D01*
X301060Y377760D01*
X302585Y376235D01*
X302585Y370133D01*
X301060Y368608D01*
X298009Y368608D01*
X296484Y370133D01*
X302585Y376235D01*
D16*
X215400Y351750D02*
X164600Y351750D01*
X215400Y351750D02*
X215400Y332700D01*
X215400Y288250D01*
X164600Y288250D01*
X164600Y332700D01*
X164600Y351750D01*
X164600Y332700D02*
X215400Y332700D01*
D14*
X165108Y358608D02*
X165108Y367760D01*
X169684Y367760D01*
X171209Y366235D01*
X171209Y364709D01*
X169684Y363184D01*
X171209Y361659D01*
X171209Y360133D01*
X169684Y358608D01*
X165108Y358608D01*
X165108Y363184D02*
X169684Y363184D01*
X174463Y360133D02*
X174463Y367760D01*
X174463Y360133D02*
X175988Y358608D01*
X179039Y358608D01*
X180564Y360133D01*
X180564Y367760D01*
X183818Y367760D02*
X189920Y367760D01*
X189920Y366235D01*
X183818Y360133D01*
X183818Y358608D01*
X189920Y358608D01*
X193174Y367760D02*
X199275Y367760D01*
X199275Y366235D01*
X193174Y360133D01*
X193174Y358608D01*
X199275Y358608D01*
D16*
X369200Y361750D02*
X470800Y361750D01*
X470800Y342700D01*
X470800Y298250D01*
X369200Y298250D01*
X369200Y342700D01*
X369200Y361750D01*
X369200Y342700D02*
X470800Y342700D01*
D14*
X375809Y376235D02*
X374284Y377760D01*
X371233Y377760D01*
X369708Y376235D01*
X369708Y370133D01*
X371233Y368608D01*
X374284Y368608D01*
X375809Y370133D01*
X375809Y373184D01*
X372759Y373184D01*
X379063Y368608D02*
X379063Y377760D01*
X383639Y377760D01*
X385164Y376235D01*
X385164Y373184D01*
X383639Y371659D01*
X379063Y371659D01*
X392994Y377760D02*
X394520Y376235D01*
X392994Y377760D02*
X389944Y377760D01*
X388418Y376235D01*
X388418Y374709D01*
X389944Y373184D01*
X392994Y373184D01*
X394520Y371659D01*
X394520Y370133D01*
X392994Y368608D01*
X389944Y368608D01*
X388418Y370133D01*
D16*
X374600Y261750D02*
X425400Y261750D01*
X425400Y242700D01*
X425400Y198250D01*
X374600Y198250D01*
X374600Y242700D01*
X374600Y261750D01*
X374600Y242700D02*
X425400Y242700D01*
D14*
X378159Y268608D02*
X378159Y277760D01*
X381209Y277760D02*
X375108Y277760D01*
X384463Y277760D02*
X390564Y277760D01*
X384463Y277760D02*
X384463Y268608D01*
X390564Y268608D01*
X387514Y273184D02*
X384463Y273184D01*
X393818Y277760D02*
X393818Y268608D01*
X399920Y268608D01*
X403174Y277760D02*
X409275Y277760D01*
X403174Y277760D02*
X403174Y268608D01*
X409275Y268608D01*
X406224Y273184D02*
X403174Y273184D01*
X412529Y268608D02*
X412529Y277760D01*
X415579Y274709D01*
X418630Y277760D01*
X418630Y268608D01*
M02*
