G04 This is an RS-274x file exported by *
G04 gerbv version 2.6A *
G04 More information is available about gerbv at *
G04 http://gerbv.geda-project.org/ *
G04 --End of header info--*
%MOIN*%
%FSLAX34Y34*%
%IPPOS*%
%INBottom Copper*%
G04 --Define apertures--*
%ADD10C,0.0100*%
%ADD11R,0.0600X0.0600*%
%ADD12P,0.0649X8.0000X22.5000*%
%ADD13P,0.0649X8.0000X112.5000*%
%ADD14C,0.0520*%
%ADD15P,0.0563X8.0000X22.5000*%
%ADD16C,0.0594*%
%ADD17C,0.0060*%
%ADD18C,0.0240*%
G04 --Start main section--*
G36*
G01X0023932Y0000101D02*
G01X0023932Y0000101D01*
G01X0023936Y0000101D01*
G01X0023938Y0000101D01*
G01X0023941Y0000102D01*
G01X0023944Y0000103D01*
G01X0023948Y0000104D01*
G01X0023950Y0000105D01*
G01X0023952Y0000106D01*
G01X0023955Y0000108D01*
G01X0023959Y0000110D01*
G01X0023960Y0000112D01*
G01X0023962Y0000114D01*
G01X0023965Y0000116D01*
G01X0023968Y0000119D01*
G01X0023969Y0000121D01*
G01X0023970Y0000123D01*
G01X0023972Y0000127D01*
G01X0023974Y0000130D01*
G01X0023975Y0000132D01*
G01X0023976Y0000135D01*
G01X0023976Y0000138D01*
G01X0023978Y0000142D01*
G01X0023978Y0000144D01*
G01X0023978Y0000147D01*
G01X0023978Y0000151D01*
G01X0023978Y0000154D01*
G01X0023977Y0000157D01*
G01X0023977Y0000159D01*
G01X0023976Y0000163D01*
G01X0023975Y0000167D01*
G01X0023974Y0000169D01*
G01X0023973Y0000171D01*
G01X0023971Y0000174D01*
G01X0023970Y0000178D01*
G01X0023968Y0000180D01*
G01X0023967Y0000182D01*
G01X0023964Y0000184D01*
G01X0023961Y0000187D01*
G01X0023959Y0000189D01*
G01X0023958Y0000190D01*
G01X0023954Y0000192D01*
G01X0023951Y0000194D01*
G01X0023947Y0000196D01*
G01X0023947Y0000196D01*
G01X0023946Y0000197D01*
G01X0023945Y0000197D01*
G01X0023603Y0000322D01*
G01X0023278Y0000594D01*
G01X0023066Y0000961D01*
G01X0022993Y0001378D01*
G01X0023066Y0001795D01*
G01X0023278Y0002162D01*
G01X0023603Y0002434D01*
G01X0024001Y0002579D01*
G01X0024424Y0002579D01*
G01X0024822Y0002434D01*
G01X0025147Y0002162D01*
G01X0025359Y0001795D01*
G01X0025391Y0001610D01*
G01X0025392Y0001609D01*
G01X0025392Y0001607D01*
G01X0025394Y0001603D01*
G01X0025395Y0001598D01*
G01X0025396Y0001597D01*
G01X0025397Y0001595D01*
G01X0025399Y0001591D01*
G01X0025402Y0001588D01*
G01X0025403Y0001586D01*
G01X0025404Y0001585D01*
G01X0025407Y0001582D01*
G01X0025411Y0001579D01*
G01X0025412Y0001578D01*
G01X0025414Y0001577D01*
G01X0025418Y0001575D01*
G01X0025421Y0001573D01*
G01X0025423Y0001572D01*
G01X0025425Y0001572D01*
G01X0025429Y0001571D01*
G01X0025434Y0001570D01*
G01X0025436Y0001570D01*
G01X0025437Y0001569D01*
G01X0025442Y0001569D01*
G01X0025446Y0001569D01*
G01X0025448Y0001570D01*
G01X0025450Y0001570D01*
G01X0025454Y0001571D01*
G01X0025458Y0001572D01*
G01X0025460Y0001573D01*
G01X0025462Y0001574D01*
G01X0025465Y0001576D01*
G01X0025469Y0001578D01*
G01X0025471Y0001580D01*
G01X0025472Y0001581D01*
G01X0025475Y0001584D01*
G01X0025479Y0001587D01*
G01X0025480Y0001588D01*
G01X0025481Y0001590D01*
G01X0025483Y0001593D01*
G01X0025485Y0001597D01*
G01X0025486Y0001599D01*
G01X0025487Y0001601D01*
G01X0025488Y0001605D01*
G01X0025489Y0001609D01*
G01X0025490Y0001611D01*
G01X0025490Y0001613D01*
G01X0025491Y0001619D01*
G01X0025491Y0020428D01*
G01X0025490Y0020430D01*
G01X0025490Y0020432D01*
G01X0025489Y0020436D01*
G01X0025489Y0020441D01*
G01X0025488Y0020442D01*
G01X0025488Y0020444D01*
G01X0025486Y0020448D01*
G01X0025484Y0020452D01*
G01X0025483Y0020454D01*
G01X0025482Y0020456D01*
G01X0025480Y0020459D01*
G01X0025477Y0020462D01*
G01X0025476Y0020464D01*
G01X0025474Y0020465D01*
G01X0025471Y0020468D01*
G01X0025467Y0020470D01*
G01X0025466Y0020471D01*
G01X0025464Y0020472D01*
G01X0025460Y0020474D01*
G01X0025456Y0020476D01*
G01X0025454Y0020476D01*
G01X0025452Y0020477D01*
G01X0025448Y0020477D01*
G01X0025444Y0020478D01*
G01X0025442Y0020478D01*
G01X0025440Y0020478D01*
G01X0025436Y0020478D01*
G01X0025431Y0020477D01*
G01X0025429Y0020477D01*
G01X0025427Y0020476D01*
G01X0025423Y0020475D01*
G01X0025419Y0020473D01*
G01X0025418Y0020472D01*
G01X0025416Y0020472D01*
G01X0025412Y0020469D01*
G01X0025409Y0020467D01*
G01X0025407Y0020465D01*
G01X0025406Y0020464D01*
G01X0025403Y0020461D01*
G01X0025400Y0020458D01*
G01X0025399Y0020456D01*
G01X0025398Y0020454D01*
G01X0025396Y0020450D01*
G01X0025394Y0020447D01*
G01X0025394Y0020445D01*
G01X0025393Y0020443D01*
G01X0025391Y0020437D01*
G01X0025359Y0020252D01*
G01X0025147Y0019885D01*
G01X0024822Y0019613D01*
G01X0024424Y0019468D01*
G01X0024001Y0019468D01*
G01X0023603Y0019613D01*
G01X0023278Y0019885D01*
G01X0023066Y0020252D01*
G01X0022993Y0020669D01*
G01X0023066Y0021086D01*
G01X0023278Y0021453D01*
G01X0023603Y0021726D01*
G01X0023945Y0021850D01*
G01X0023949Y0021852D01*
G01X0023952Y0021853D01*
G01X0023954Y0021855D01*
G01X0023956Y0021856D01*
G01X0023959Y0021859D01*
G01X0023962Y0021861D01*
G01X0023964Y0021863D01*
G01X0023966Y0021864D01*
G01X0023968Y0021867D01*
G01X0023970Y0021870D01*
G01X0023971Y0021873D01*
G01X0023973Y0021875D01*
G01X0023974Y0021878D01*
G01X0023976Y0021882D01*
G01X0023976Y0021884D01*
G01X0023977Y0021886D01*
G01X0023977Y0021890D01*
G01X0023978Y0021894D01*
G01X0023978Y0021897D01*
G01X0023978Y0021899D01*
G01X0023978Y0021903D01*
G01X0023977Y0021907D01*
G01X0023977Y0021909D01*
G01X0023976Y0021911D01*
G01X0023975Y0021915D01*
G01X0023973Y0021918D01*
G01X0023972Y0021921D01*
G01X0023971Y0021923D01*
G01X0023969Y0021926D01*
G01X0023967Y0021929D01*
G01X0023965Y0021931D01*
G01X0023963Y0021933D01*
G01X0023960Y0021935D01*
G01X0023958Y0021938D01*
G01X0023955Y0021939D01*
G01X0023954Y0021940D01*
G01X0023950Y0021942D01*
G01X0023947Y0021944D01*
G01X0023944Y0021944D01*
G01X0023942Y0021945D01*
G01X0023938Y0021946D01*
G01X0023935Y0021947D01*
G01X0023930Y0021947D01*
G01X0023930Y0021947D01*
G01X0023929Y0021947D01*
G01X0023928Y0021947D01*
G01X0001662Y0021947D01*
G01X0001659Y0021947D01*
G01X0001655Y0021947D01*
G01X0001652Y0021946D01*
G01X0001650Y0021946D01*
G01X0001646Y0021944D01*
G01X0001643Y0021943D01*
G01X0001641Y0021942D01*
G01X0001638Y0021941D01*
G01X0001635Y0021939D01*
G01X0001632Y0021937D01*
G01X0001630Y0021935D01*
G01X0001628Y0021934D01*
G01X0001626Y0021931D01*
G01X0001623Y0021928D01*
G01X0001622Y0021926D01*
G01X0001620Y0021924D01*
G01X0001619Y0021921D01*
G01X0001617Y0021917D01*
G01X0001616Y0021915D01*
G01X0001615Y0021913D01*
G01X0001614Y0021909D01*
G01X0001613Y0021905D01*
G01X0001613Y0021903D01*
G01X0001612Y0021900D01*
G01X0001613Y0021897D01*
G01X0001613Y0021893D01*
G01X0001613Y0021890D01*
G01X0001613Y0021888D01*
G01X0001614Y0021884D01*
G01X0001615Y0021881D01*
G01X0001616Y0021878D01*
G01X0001617Y0021876D01*
G01X0001619Y0021873D01*
G01X0001621Y0021869D01*
G01X0001623Y0021868D01*
G01X0001624Y0021865D01*
G01X0001627Y0021863D01*
G01X0001629Y0021860D01*
G01X0001631Y0021859D01*
G01X0001633Y0021857D01*
G01X0001636Y0021855D01*
G01X0001639Y0021853D01*
G01X0001643Y0021851D01*
G01X0001644Y0021851D01*
G01X0001644Y0021851D01*
G01X0001645Y0021850D01*
G01X0001988Y0021726D01*
G01X0002312Y0021453D01*
G01X0002524Y0021086D01*
G01X0002598Y0020669D01*
G01X0002524Y0020252D01*
G01X0002312Y0019885D01*
G01X0001988Y0019613D01*
G01X0001590Y0019468D01*
G01X0001166Y0019468D01*
G01X0000768Y0019613D01*
G01X0000444Y0019885D01*
G01X0000232Y0020252D01*
G01X0000199Y0020437D01*
G01X0000199Y0020439D01*
G01X0000198Y0020441D01*
G01X0000197Y0020445D01*
G01X0000196Y0020449D01*
G01X0000194Y0020450D01*
G01X0000194Y0020452D01*
G01X0000191Y0020456D01*
G01X0000189Y0020459D01*
G01X0000188Y0020461D01*
G01X0000186Y0020462D01*
G01X0000183Y0020465D01*
G01X0000180Y0020468D01*
G01X0000178Y0020469D01*
G01X0000177Y0020470D01*
G01X0000173Y0020472D01*
G01X0000169Y0020474D01*
G01X0000167Y0020475D01*
G01X0000165Y0020476D01*
G01X0000161Y0020476D01*
G01X0000157Y0020478D01*
G01X0000155Y0020478D01*
G01X0000153Y0020478D01*
G01X0000149Y0020478D01*
G01X0000144Y0020478D01*
G01X0000143Y0020477D01*
G01X0000141Y0020477D01*
G01X0000137Y0020476D01*
G01X0000132Y0020475D01*
G01X0000131Y0020474D01*
G01X0000129Y0020473D01*
G01X0000125Y0020471D01*
G01X0000121Y0020469D01*
G01X0000120Y0020468D01*
G01X0000118Y0020467D01*
G01X0000115Y0020464D01*
G01X0000112Y0020461D01*
G01X0000111Y0020459D01*
G01X0000110Y0020458D01*
G01X0000108Y0020454D01*
G01X0000105Y0020450D01*
G01X0000104Y0020448D01*
G01X0000104Y0020447D01*
G01X0000102Y0020442D01*
G01X0000101Y0020438D01*
G01X0000101Y0020436D01*
G01X0000100Y0020434D01*
G01X0000100Y0020428D01*
G01X0000100Y0014764D01*
G01X0000100Y0014763D01*
G01X0000100Y0014759D01*
G01X0000105Y0014711D01*
G01X0000106Y0014707D01*
G01X0000106Y0014703D01*
G01X0000108Y0014700D01*
G01X0000108Y0014699D01*
G01X0000108Y0014699D01*
G01X0000109Y0014697D01*
G01X0000145Y0014609D01*
G01X0000145Y0014609D01*
G01X0000145Y0014609D01*
G01X0000148Y0014603D01*
G01X0000151Y0014598D01*
G01X0000151Y0014598D01*
G01X0000152Y0014598D01*
G01X0000156Y0014593D01*
G01X0000223Y0014526D01*
G01X0000223Y0014526D01*
G01X0000224Y0014525D01*
G01X0000228Y0014522D01*
G01X0000233Y0014518D01*
G01X0000233Y0014518D01*
G01X0000234Y0014518D01*
G01X0000239Y0014515D01*
G01X0000327Y0014479D01*
G01X0000331Y0014477D01*
G01X0000335Y0014476D01*
G01X0000338Y0014476D01*
G01X0000339Y0014475D01*
G01X0000340Y0014475D01*
G01X0000341Y0014475D01*
G01X0000389Y0014470D01*
G01X0000390Y0014470D01*
G01X0000394Y0014470D01*
G01X0001673Y0014470D01*
G01X0001854Y0014395D01*
G01X0001993Y0014256D01*
G01X0002069Y0014075D01*
G01X0002069Y0007973D01*
G01X0001993Y0007791D01*
G01X0001854Y0007652D01*
G01X0001673Y0007577D01*
G01X0000394Y0007577D01*
G01X0000393Y0007577D01*
G01X0000389Y0007577D01*
G01X0000341Y0007572D01*
G01X0000337Y0007571D01*
G01X0000333Y0007571D01*
G01X0000330Y0007570D01*
G01X0000329Y0007569D01*
G01X0000329Y0007569D01*
G01X0000327Y0007569D01*
G01X0000239Y0007532D01*
G01X0000239Y0007532D01*
G01X0000239Y0007532D01*
G01X0000233Y0007529D01*
G01X0000228Y0007526D01*
G01X0000228Y0007526D01*
G01X0000228Y0007526D01*
G01X0000223Y0007521D01*
G01X0000156Y0007454D01*
G01X0000156Y0007454D01*
G01X0000155Y0007454D01*
G01X0000152Y0007449D01*
G01X0000148Y0007444D01*
G01X0000148Y0007444D01*
G01X0000148Y0007444D01*
G01X0000145Y0007438D01*
G01X0000109Y0007350D01*
G01X0000107Y0007346D01*
G01X0000106Y0007342D01*
G01X0000105Y0007339D01*
G01X0000105Y0007338D01*
G01X0000105Y0007337D01*
G01X0000105Y0007336D01*
G01X0000100Y0007288D01*
G01X0000100Y0007288D01*
G01X0000100Y0007283D01*
G01X0000100Y0001619D01*
G01X0000100Y0001617D01*
G01X0000100Y0001615D01*
G01X0000101Y0001611D01*
G01X0000102Y0001607D01*
G01X0000102Y0001605D01*
G01X0000103Y0001603D01*
G01X0000105Y0001599D01*
G01X0000106Y0001595D01*
G01X0000107Y0001593D01*
G01X0000108Y0001592D01*
G01X0000111Y0001588D01*
G01X0000114Y0001585D01*
G01X0000115Y0001584D01*
G01X0000116Y0001582D01*
G01X0000120Y0001580D01*
G01X0000123Y0001577D01*
G01X0000125Y0001576D01*
G01X0000127Y0001575D01*
G01X0000131Y0001573D01*
G01X0000135Y0001572D01*
G01X0000136Y0001571D01*
G01X0000138Y0001571D01*
G01X0000143Y0001570D01*
G01X0000147Y0001569D01*
G01X0000149Y0001569D01*
G01X0000151Y0001569D01*
G01X0000155Y0001570D01*
G01X0000159Y0001570D01*
G01X0000161Y0001571D01*
G01X0000163Y0001571D01*
G01X0000167Y0001573D01*
G01X0000171Y0001574D01*
G01X0000173Y0001575D01*
G01X0000175Y0001576D01*
G01X0000178Y0001578D01*
G01X0000182Y0001581D01*
G01X0000183Y0001582D01*
G01X0000185Y0001583D01*
G01X0000187Y0001586D01*
G01X0000190Y0001590D01*
G01X0000191Y0001591D01*
G01X0000193Y0001593D01*
G01X0000194Y0001597D01*
G01X0000196Y0001601D01*
G01X0000197Y0001602D01*
G01X0000198Y0001604D01*
G01X0000199Y0001610D01*
G01X0000232Y0001795D01*
G01X0000444Y0002162D01*
G01X0000768Y0002434D01*
G01X0001166Y0002579D01*
G01X0001590Y0002579D01*
G01X0001988Y0002434D01*
G01X0002312Y0002162D01*
G01X0002524Y0001795D01*
G01X0002598Y0001378D01*
G01X0002524Y0000961D01*
G01X0002312Y0000594D01*
G01X0001988Y0000322D01*
G01X0001645Y0000197D01*
G01X0001642Y0000195D01*
G01X0001638Y0000194D01*
G01X0001636Y0000192D01*
G01X0001634Y0000191D01*
G01X0001631Y0000189D01*
G01X0001628Y0000186D01*
G01X0001627Y0000185D01*
G01X0001625Y0000183D01*
G01X0001623Y0000180D01*
G01X0001620Y0000177D01*
G01X0001619Y0000175D01*
G01X0001618Y0000173D01*
G01X0001616Y0000169D01*
G01X0001615Y0000165D01*
G01X0001614Y0000163D01*
G01X0001614Y0000161D01*
G01X0001613Y0000157D01*
G01X0001612Y0000153D01*
G01X0001613Y0000151D01*
G01X0001612Y0000148D01*
G01X0001613Y0000144D01*
G01X0001613Y0000141D01*
G01X0001614Y0000138D01*
G01X0001614Y0000136D01*
G01X0001616Y0000132D01*
G01X0001617Y0000129D01*
G01X0001618Y0000127D01*
G01X0001619Y0000124D01*
G01X0001622Y0000121D01*
G01X0001624Y0000118D01*
G01X0001626Y0000116D01*
G01X0001627Y0000115D01*
G01X0001630Y0000112D01*
G01X0001633Y0000110D01*
G01X0001635Y0000108D01*
G01X0001637Y0000107D01*
G01X0001641Y0000105D01*
G01X0001644Y0000104D01*
G01X0001646Y0000103D01*
G01X0001649Y0000102D01*
G01X0001652Y0000101D01*
G01X0001656Y0000100D01*
G01X0001660Y0000100D01*
G01X0001661Y0000100D01*
G01X0001661Y0000100D01*
G01X0001662Y0000100D01*
G01X0023928Y0000100D01*
G01X0023932Y0000101D01*
G37*
%LPC*%
G36*
G01X0017618Y0001081D02*
G01X0017618Y0001081D01*
G01X0017437Y0001156D01*
G01X0017298Y0001295D01*
G01X0017223Y0001477D01*
G01X0017223Y0007579D01*
G01X0017298Y0007760D01*
G01X0017437Y0007899D01*
G01X0017618Y0007974D01*
G01X0017815Y0007974D01*
G01X0017996Y0007899D01*
G01X0018135Y0007760D01*
G01X0018210Y0007579D01*
G01X0018210Y0001477D01*
G01X0018135Y0001295D01*
G01X0017996Y0001156D01*
G01X0017815Y0001081D01*
G01X0017618Y0001081D01*
G37*
G36*
G01X0020255Y0000284D02*
G01X0020255Y0000284D01*
G01X0020255Y0000284D01*
G01X0020239Y0000301D01*
G01X0020231Y0000308D01*
G01X0020228Y0000311D01*
G01X0020224Y0000314D01*
G01X0020223Y0000315D01*
G01X0020221Y0000316D01*
G01X0020217Y0000318D01*
G01X0020213Y0000320D01*
G01X0020211Y0000320D01*
G01X0020210Y0000321D01*
G01X0020205Y0000322D01*
G01X0020201Y0000323D01*
G01X0020199Y0000323D01*
G01X0020197Y0000323D01*
G01X0020193Y0000323D01*
G01X0020188Y0000322D01*
G01X0020187Y0000322D01*
G01X0020185Y0000322D01*
G01X0020181Y0000320D01*
G01X0020176Y0000319D01*
G01X0020175Y0000318D01*
G01X0020173Y0000318D01*
G01X0020169Y0000315D01*
G01X0020165Y0000313D01*
G01X0020164Y0000311D01*
G01X0020163Y0000311D01*
G01X0020162Y0000310D01*
G01X0020161Y0000308D01*
G01X0020093Y0000241D01*
G01X0019931Y0000241D01*
G01X0019885Y0000241D01*
G01X0019841Y0000284D01*
G01X0019841Y0000284D01*
G01X0019822Y0000303D01*
G01X0019770Y0000356D01*
G01X0019765Y0000359D01*
G01X0019761Y0000362D01*
G01X0019760Y0000363D01*
G01X0019760Y0000363D01*
G01X0019755Y0000365D01*
G01X0019750Y0000368D01*
G01X0019749Y0000368D01*
G01X0019748Y0000368D01*
G01X0019743Y0000369D01*
G01X0019738Y0000370D01*
G01X0019737Y0000370D01*
G01X0019736Y0000370D01*
G01X0019730Y0000370D01*
G01X0019725Y0000369D01*
G01X0019724Y0000369D01*
G01X0019723Y0000369D01*
G01X0019718Y0000367D01*
G01X0019713Y0000366D01*
G01X0019712Y0000365D01*
G01X0019712Y0000365D01*
G01X0019707Y0000362D01*
G01X0019703Y0000359D01*
G01X0019702Y0000358D01*
G01X0019701Y0000358D01*
G01X0019698Y0000354D01*
G01X0019694Y0000350D01*
G01X0019694Y0000349D01*
G01X0019693Y0000348D01*
G01X0019691Y0000344D01*
G01X0019688Y0000339D01*
G01X0019688Y0000338D01*
G01X0019687Y0000337D01*
G01X0019686Y0000332D01*
G01X0019685Y0000327D01*
G01X0019685Y0000326D01*
G01X0019685Y0000325D01*
G01X0019685Y0000324D01*
G01X0019684Y0000320D01*
G01X0019684Y0000305D01*
G01X0019620Y0000241D01*
G01X0019529Y0000241D01*
G01X0019464Y0000305D01*
G01X0019464Y0000541D01*
G01X0019464Y0000546D01*
G01X0019463Y0000550D01*
G01X0019463Y0000552D01*
G01X0019463Y0000553D01*
G01X0019461Y0000558D01*
G01X0019460Y0000562D01*
G01X0019459Y0000563D01*
G01X0019458Y0000565D01*
G01X0019455Y0000569D01*
G01X0019453Y0000573D01*
G01X0019452Y0000574D01*
G01X0019451Y0000575D01*
G01X0019447Y0000578D01*
G01X0019444Y0000581D01*
G01X0019442Y0000582D01*
G01X0019441Y0000583D01*
G01X0019437Y0000585D01*
G01X0019433Y0000587D01*
G01X0019431Y0000588D01*
G01X0019430Y0000588D01*
G01X0019425Y0000589D01*
G01X0019421Y0000590D01*
G01X0019418Y0000591D01*
G01X0019418Y0000591D01*
G01X0019417Y0000591D01*
G01X0019414Y0000591D01*
G01X0019412Y0000591D01*
G01X0019403Y0000600D01*
G01X0019399Y0000603D01*
G01X0019395Y0000606D01*
G01X0019394Y0000607D01*
G01X0019393Y0000608D01*
G01X0019388Y0000610D01*
G01X0019384Y0000612D01*
G01X0019383Y0000612D01*
G01X0019381Y0000613D01*
G01X0019376Y0000614D01*
G01X0019372Y0000615D01*
G01X0019370Y0000615D01*
G01X0019369Y0000615D01*
G01X0019364Y0000615D01*
G01X0019359Y0000614D01*
G01X0019358Y0000614D01*
G01X0019356Y0000614D01*
G01X0019352Y0000612D01*
G01X0019347Y0000611D01*
G01X0019346Y0000610D01*
G01X0019345Y0000610D01*
G01X0019341Y0000607D01*
G01X0019337Y0000605D01*
G01X0019335Y0000603D01*
G01X0019334Y0000603D01*
G01X0019334Y0000602D01*
G01X0019332Y0000600D01*
G01X0019322Y0000591D01*
G01X0019320Y0000591D01*
G01X0019315Y0000590D01*
G01X0019311Y0000590D01*
G01X0019309Y0000589D01*
G01X0019308Y0000589D01*
G01X0019303Y0000588D01*
G01X0019299Y0000586D01*
G01X0019297Y0000585D01*
G01X0019296Y0000585D01*
G01X0019292Y0000582D01*
G01X0019288Y0000579D01*
G01X0019287Y0000578D01*
G01X0019286Y0000577D01*
G01X0019283Y0000574D01*
G01X0019280Y0000570D01*
G01X0019279Y0000569D01*
G01X0019278Y0000568D01*
G01X0019276Y0000563D01*
G01X0019274Y0000559D01*
G01X0019273Y0000558D01*
G01X0019272Y0000556D01*
G01X0019272Y0000552D01*
G01X0019270Y0000547D01*
G01X0019270Y0000545D01*
G01X0019270Y0000544D01*
G01X0019270Y0000543D01*
G01X0019270Y0000541D01*
G01X0019270Y0000305D01*
G01X0019206Y0000241D01*
G01X0019114Y0000241D01*
G01X0019050Y0000305D01*
G01X0019050Y0000320D01*
G01X0019049Y0000326D01*
G01X0019049Y0000331D01*
G01X0019049Y0000332D01*
G01X0019048Y0000333D01*
G01X0019046Y0000338D01*
G01X0019045Y0000343D01*
G01X0019044Y0000344D01*
G01X0019044Y0000344D01*
G01X0019041Y0000349D01*
G01X0019038Y0000353D01*
G01X0019037Y0000354D01*
G01X0019036Y0000354D01*
G01X0019032Y0000358D01*
G01X0019028Y0000362D01*
G01X0019027Y0000362D01*
G01X0019027Y0000362D01*
G01X0019022Y0000365D01*
G01X0019017Y0000367D01*
G01X0019016Y0000367D01*
G01X0019015Y0000368D01*
G01X0019010Y0000369D01*
G01X0019005Y0000370D01*
G01X0019004Y0000370D01*
G01X0019003Y0000370D01*
G01X0018998Y0000370D01*
G01X0018992Y0000370D01*
G01X0018991Y0000369D01*
G01X0018991Y0000369D01*
G01X0018985Y0000368D01*
G01X0018980Y0000366D01*
G01X0018980Y0000366D01*
G01X0018979Y0000366D01*
G01X0018974Y0000363D01*
G01X0018969Y0000360D01*
G01X0018969Y0000359D01*
G01X0018968Y0000359D01*
G01X0018968Y0000358D01*
G01X0018965Y0000356D01*
G01X0018929Y0000320D01*
G01X0018850Y0000241D01*
G01X0018688Y0000241D01*
G01X0018642Y0000241D01*
G01X0018603Y0000279D01*
G01X0018599Y0000282D01*
G01X0018596Y0000285D01*
G01X0018594Y0000286D01*
G01X0018593Y0000287D01*
G01X0018589Y0000289D01*
G01X0018585Y0000291D01*
G01X0018583Y0000291D01*
G01X0018582Y0000292D01*
G01X0018577Y0000293D01*
G01X0018572Y0000294D01*
G01X0018571Y0000294D01*
G01X0018569Y0000294D01*
G01X0018565Y0000293D01*
G01X0018560Y0000293D01*
G01X0018558Y0000293D01*
G01X0018557Y0000293D01*
G01X0018552Y0000291D01*
G01X0018548Y0000290D01*
G01X0018546Y0000289D01*
G01X0018545Y0000288D01*
G01X0018541Y0000286D01*
G01X0018537Y0000283D01*
G01X0018535Y0000282D01*
G01X0018535Y0000281D01*
G01X0018534Y0000281D01*
G01X0018532Y0000279D01*
G01X0018494Y0000241D01*
G01X0018402Y0000241D01*
G01X0018367Y0000276D01*
G01X0018363Y0000279D01*
G01X0018359Y0000282D01*
G01X0018358Y0000283D01*
G01X0018357Y0000284D01*
G01X0018352Y0000286D01*
G01X0018348Y0000288D01*
G01X0018347Y0000288D01*
G01X0018345Y0000289D01*
G01X0018341Y0000290D01*
G01X0018336Y0000291D01*
G01X0018334Y0000291D01*
G01X0018333Y0000291D01*
G01X0018328Y0000291D01*
G01X0018324Y0000290D01*
G01X0018322Y0000290D01*
G01X0018320Y0000290D01*
G01X0018316Y0000288D01*
G01X0018311Y0000287D01*
G01X0018310Y0000286D01*
G01X0018309Y0000286D01*
G01X0018305Y0000283D01*
G01X0018301Y0000281D01*
G01X0018299Y0000279D01*
G01X0018298Y0000279D01*
G01X0018298Y0000278D01*
G01X0018296Y0000276D01*
G01X0018260Y0000241D01*
G01X0018169Y0000241D01*
G01X0018104Y0000305D01*
G01X0018104Y0000746D01*
G01X0018169Y0000811D01*
G01X0018260Y0000811D01*
G01X0018296Y0000775D01*
G01X0018300Y0000772D01*
G01X0018303Y0000769D01*
G01X0018305Y0000768D01*
G01X0018306Y0000767D01*
G01X0018310Y0000766D01*
G01X0018314Y0000763D01*
G01X0018316Y0000763D01*
G01X0018317Y0000762D01*
G01X0018322Y0000762D01*
G01X0018327Y0000761D01*
G01X0018328Y0000761D01*
G01X0018330Y0000760D01*
G01X0018334Y0000761D01*
G01X0018339Y0000761D01*
G01X0018341Y0000761D01*
G01X0018342Y0000762D01*
G01X0018347Y0000763D01*
G01X0018351Y0000765D01*
G01X0018352Y0000765D01*
G01X0018354Y0000766D01*
G01X0018358Y0000769D01*
G01X0018362Y0000771D01*
G01X0018364Y0000772D01*
G01X0018364Y0000773D01*
G01X0018365Y0000774D01*
G01X0018367Y0000775D01*
G01X0018402Y0000811D01*
G01X0018494Y0000811D01*
G01X0018532Y0000772D01*
G01X0018536Y0000769D01*
G01X0018540Y0000766D01*
G01X0018541Y0000766D01*
G01X0018542Y0000765D01*
G01X0018547Y0000763D01*
G01X0018551Y0000761D01*
G01X0018552Y0000760D01*
G01X0018554Y0000760D01*
G01X0018558Y0000759D01*
G01X0018563Y0000758D01*
G01X0018564Y0000758D01*
G01X0018566Y0000758D01*
G01X0018571Y0000758D01*
G01X0018575Y0000758D01*
G01X0018577Y0000759D01*
G01X0018579Y0000759D01*
G01X0018583Y0000760D01*
G01X0018587Y0000762D01*
G01X0018589Y0000762D01*
G01X0018590Y0000763D01*
G01X0018594Y0000766D01*
G01X0018598Y0000768D01*
G01X0018600Y0000770D01*
G01X0018601Y0000770D01*
G01X0018601Y0000771D01*
G01X0018603Y0000772D01*
G01X0018642Y0000811D01*
G01X0018738Y0000811D01*
G01X0018805Y0000811D01*
G01X0018850Y0000811D01*
G01X0018888Y0000772D01*
G01X0018892Y0000769D01*
G01X0018896Y0000766D01*
G01X0018897Y0000766D01*
G01X0018898Y0000765D01*
G01X0018903Y0000763D01*
G01X0018907Y0000761D01*
G01X0018908Y0000760D01*
G01X0018910Y0000760D01*
G01X0018914Y0000759D01*
G01X0018919Y0000758D01*
G01X0018920Y0000758D01*
G01X0018922Y0000758D01*
G01X0018927Y0000758D01*
G01X0018931Y0000758D01*
G01X0018933Y0000759D01*
G01X0018935Y0000759D01*
G01X0018939Y0000760D01*
G01X0018943Y0000762D01*
G01X0018945Y0000762D01*
G01X0018946Y0000763D01*
G01X0018950Y0000766D01*
G01X0018954Y0000768D01*
G01X0018956Y0000770D01*
G01X0018957Y0000770D01*
G01X0018957Y0000771D01*
G01X0018959Y0000772D01*
G01X0018998Y0000811D01*
G01X0019322Y0000811D01*
G01X0019332Y0000801D01*
G01X0019336Y0000799D01*
G01X0019339Y0000795D01*
G01X0019340Y0000795D01*
G01X0019342Y0000794D01*
G01X0019346Y0000792D01*
G01X0019350Y0000790D01*
G01X0019352Y0000789D01*
G01X0019353Y0000789D01*
G01X0019358Y0000788D01*
G01X0019362Y0000787D01*
G01X0019364Y0000787D01*
G01X0019366Y0000787D01*
G01X0019370Y0000787D01*
G01X0019375Y0000787D01*
G01X0019376Y0000788D01*
G01X0019378Y0000788D01*
G01X0019382Y0000790D01*
G01X0019387Y0000791D01*
G01X0019388Y0000792D01*
G01X0019390Y0000792D01*
G01X0019394Y0000795D01*
G01X0019398Y0000797D01*
G01X0019400Y0000799D01*
G01X0019400Y0000799D01*
G01X0019401Y0000800D01*
G01X0019403Y0000801D01*
G01X0019412Y0000811D01*
G01X0019737Y0000811D01*
G01X0019775Y0000772D01*
G01X0019779Y0000769D01*
G01X0019783Y0000766D01*
G01X0019784Y0000766D01*
G01X0019785Y0000765D01*
G01X0019790Y0000763D01*
G01X0019794Y0000761D01*
G01X0019795Y0000760D01*
G01X0019797Y0000760D01*
G01X0019801Y0000759D01*
G01X0019806Y0000758D01*
G01X0019808Y0000758D01*
G01X0019809Y0000758D01*
G01X0019814Y0000758D01*
G01X0019819Y0000758D01*
G01X0019820Y0000759D01*
G01X0019822Y0000759D01*
G01X0019826Y0000760D01*
G01X0019831Y0000762D01*
G01X0019832Y0000762D01*
G01X0019833Y0000763D01*
G01X0019837Y0000766D01*
G01X0019841Y0000768D01*
G01X0019843Y0000770D01*
G01X0019844Y0000770D01*
G01X0019844Y0000771D01*
G01X0019846Y0000772D01*
G01X0019885Y0000811D01*
G01X0019981Y0000811D01*
G01X0020048Y0000811D01*
G01X0020093Y0000811D01*
G01X0020155Y0000748D01*
G01X0020161Y0000743D01*
G01X0020164Y0000740D01*
G01X0020168Y0000737D01*
G01X0020169Y0000736D01*
G01X0020170Y0000735D01*
G01X0020175Y0000734D01*
G01X0020179Y0000731D01*
G01X0020180Y0000731D01*
G01X0020182Y0000730D01*
G01X0020187Y0000730D01*
G01X0020191Y0000729D01*
G01X0020193Y0000729D01*
G01X0020194Y0000728D01*
G01X0020199Y0000729D01*
G01X0020204Y0000729D01*
G01X0020205Y0000729D01*
G01X0020207Y0000730D01*
G01X0020211Y0000731D01*
G01X0020216Y0000732D01*
G01X0020217Y0000733D01*
G01X0020219Y0000734D01*
G01X0020222Y0000736D01*
G01X0020226Y0000739D01*
G01X0020228Y0000740D01*
G01X0020229Y0000741D01*
G01X0020229Y0000741D01*
G01X0020231Y0000743D01*
G01X0020255Y0000767D01*
G01X0020299Y0000811D01*
G01X0020565Y0000811D01*
G01X0020630Y0000746D01*
G01X0020630Y0000305D01*
G01X0020565Y0000241D01*
G01X0020344Y0000241D01*
G01X0020299Y0000241D01*
G01X0020255Y0000284D01*
G37*
G36*
G01X0014964Y0012338D02*
G01X0014964Y0012338D01*
G01X0014833Y0012393D01*
G01X0014733Y0012493D01*
G01X0014679Y0012624D01*
G01X0014679Y0013360D01*
G01X0014733Y0013491D01*
G01X0014742Y0013500D01*
G01X0014745Y0013504D01*
G01X0014748Y0013507D01*
G01X0014749Y0013509D01*
G01X0014750Y0013510D01*
G01X0014751Y0013514D01*
G01X0014754Y0013519D01*
G01X0014754Y0013520D01*
G01X0014755Y0013521D01*
G01X0014755Y0013526D01*
G01X0014756Y0013531D01*
G01X0014756Y0013532D01*
G01X0014756Y0013534D01*
G01X0014756Y0013539D01*
G01X0014756Y0013543D01*
G01X0014755Y0013545D01*
G01X0014755Y0013546D01*
G01X0014754Y0013551D01*
G01X0014752Y0013555D01*
G01X0014752Y0013557D01*
G01X0014751Y0013558D01*
G01X0014748Y0013562D01*
G01X0014746Y0013566D01*
G01X0014744Y0013568D01*
G01X0014744Y0013568D01*
G01X0014743Y0013569D01*
G01X0014742Y0013571D01*
G01X0013987Y0014325D01*
G01X0013984Y0014328D01*
G01X0013981Y0014330D01*
G01X0013979Y0014332D01*
G01X0013977Y0014333D01*
G01X0013974Y0014335D01*
G01X0013970Y0014336D01*
G01X0013968Y0014337D01*
G01X0013966Y0014338D01*
G01X0013962Y0014339D01*
G01X0013958Y0014340D01*
G01X0013954Y0014340D01*
G01X0013954Y0014340D01*
G01X0013953Y0014340D01*
G01X0013952Y0014340D01*
G01X0013845Y0014340D01*
G01X0013740Y0014445D01*
G01X0013740Y0014595D01*
G01X0013845Y0014700D01*
G01X0013995Y0014700D01*
G01X0014100Y0014595D01*
G01X0014100Y0014488D01*
G01X0014101Y0014484D01*
G01X0014101Y0014480D01*
G01X0014101Y0014478D01*
G01X0014102Y0014476D01*
G01X0014103Y0014472D01*
G01X0014104Y0014468D01*
G01X0014105Y0014466D01*
G01X0014106Y0014464D01*
G01X0014109Y0014461D01*
G01X0014110Y0014457D01*
G01X0014113Y0014454D01*
G01X0014114Y0014454D01*
G01X0014114Y0014454D01*
G01X0014115Y0014453D01*
G01X0014910Y0013657D01*
G01X0014911Y0013656D01*
G01X0014912Y0013655D01*
G01X0014916Y0013652D01*
G01X0014920Y0013649D01*
G01X0014921Y0013649D01*
G01X0014922Y0013648D01*
G01X0014927Y0013646D01*
G01X0014932Y0013644D01*
G01X0014933Y0013644D01*
G01X0014934Y0013644D01*
G01X0014939Y0013643D01*
G01X0014944Y0013642D01*
G01X0014945Y0013642D01*
G01X0014946Y0013642D01*
G01X0014952Y0013643D01*
G01X0014957Y0013643D01*
G01X0014958Y0013644D01*
G01X0014959Y0013644D01*
G01X0014964Y0013646D01*
G01X0015106Y0013646D01*
G01X0015238Y0013592D01*
G01X0015338Y0013491D01*
G01X0015392Y0013360D01*
G01X0015392Y0012624D01*
G01X0015338Y0012493D01*
G01X0015238Y0012393D01*
G01X0015106Y0012338D01*
G01X0014964Y0012338D01*
G37*
G36*
G01X0010240Y0012338D02*
G01X0010240Y0012338D01*
G01X0010109Y0012393D01*
G01X0010008Y0012493D01*
G01X0009954Y0012624D01*
G01X0009954Y0013360D01*
G01X0010008Y0013491D01*
G01X0010109Y0013592D01*
G01X0010240Y0013646D01*
G01X0010382Y0013646D01*
G01X0010513Y0013592D01*
G01X0010614Y0013491D01*
G01X0010668Y0013360D01*
G01X0010668Y0012624D01*
G01X0010614Y0012493D01*
G01X0010513Y0012393D01*
G01X0010382Y0012338D01*
G01X0010240Y0012338D01*
G37*
G36*
G01X0012240Y0012338D02*
G01X0012240Y0012338D01*
G01X0012109Y0012393D01*
G01X0012008Y0012493D01*
G01X0011954Y0012624D01*
G01X0011954Y0013360D01*
G01X0012008Y0013491D01*
G01X0012109Y0013592D01*
G01X0012240Y0013646D01*
G01X0012382Y0013646D01*
G01X0012513Y0013592D01*
G01X0012614Y0013491D01*
G01X0012668Y0013360D01*
G01X0012668Y0012624D01*
G01X0012614Y0012493D01*
G01X0012513Y0012393D01*
G01X0012382Y0012338D01*
G01X0012240Y0012338D01*
G37*
G36*
G01X0013240Y0012338D02*
G01X0013240Y0012338D01*
G01X0013109Y0012393D01*
G01X0013008Y0012493D01*
G01X0012954Y0012624D01*
G01X0012954Y0013360D01*
G01X0013008Y0013491D01*
G01X0013109Y0013592D01*
G01X0013240Y0013646D01*
G01X0013382Y0013646D01*
G01X0013513Y0013592D01*
G01X0013614Y0013491D01*
G01X0013668Y0013360D01*
G01X0013668Y0012624D01*
G01X0013614Y0012493D01*
G01X0013513Y0012393D01*
G01X0013382Y0012338D01*
G01X0013240Y0012338D01*
G37*
G36*
G01X0015964Y0012338D02*
G01X0015964Y0012338D01*
G01X0015833Y0012393D01*
G01X0015733Y0012493D01*
G01X0015679Y0012624D01*
G01X0015679Y0013360D01*
G01X0015733Y0013491D01*
G01X0015833Y0013592D01*
G01X0015964Y0013646D01*
G01X0016106Y0013646D01*
G01X0016238Y0013592D01*
G01X0016338Y0013491D01*
G01X0016392Y0013360D01*
G01X0016392Y0012624D01*
G01X0016338Y0012493D01*
G01X0016238Y0012393D01*
G01X0016106Y0012338D01*
G01X0015964Y0012338D01*
G37*
G36*
G01X0016964Y0012338D02*
G01X0016964Y0012338D01*
G01X0016833Y0012393D01*
G01X0016733Y0012493D01*
G01X0016679Y0012624D01*
G01X0016679Y0013360D01*
G01X0016733Y0013491D01*
G01X0016833Y0013592D01*
G01X0016964Y0013646D01*
G01X0017106Y0013646D01*
G01X0017238Y0013592D01*
G01X0017338Y0013491D01*
G01X0017392Y0013360D01*
G01X0017392Y0012624D01*
G01X0017338Y0012493D01*
G01X0017238Y0012393D01*
G01X0017106Y0012338D01*
G01X0016964Y0012338D01*
G37*
G36*
G01X0016177Y0008401D02*
G01X0016177Y0008401D01*
G01X0016046Y0008456D01*
G01X0015945Y0008556D01*
G01X0015891Y0008687D01*
G01X0015891Y0009423D01*
G01X0015945Y0009554D01*
G01X0016046Y0009655D01*
G01X0016177Y0009709D01*
G01X0016319Y0009709D01*
G01X0016450Y0009655D01*
G01X0016551Y0009554D01*
G01X0016605Y0009423D01*
G01X0016605Y0008687D01*
G01X0016551Y0008556D01*
G01X0016450Y0008456D01*
G01X0016319Y0008401D01*
G01X0016177Y0008401D01*
G37*
G36*
G01X0015177Y0008401D02*
G01X0015177Y0008401D01*
G01X0015046Y0008456D01*
G01X0014945Y0008556D01*
G01X0014891Y0008687D01*
G01X0014891Y0009423D01*
G01X0014945Y0009554D01*
G01X0015046Y0009655D01*
G01X0015177Y0009709D01*
G01X0015319Y0009709D01*
G01X0015450Y0009655D01*
G01X0015551Y0009554D01*
G01X0015605Y0009423D01*
G01X0015605Y0008687D01*
G01X0015551Y0008556D01*
G01X0015450Y0008456D01*
G01X0015319Y0008401D01*
G01X0015177Y0008401D01*
G37*
G36*
G01X0006909Y0011945D02*
G01X0006909Y0011945D01*
G01X0006778Y0011999D01*
G01X0006678Y0012099D01*
G01X0006623Y0012231D01*
G01X0006623Y0012966D01*
G01X0006678Y0013097D01*
G01X0006778Y0013198D01*
G01X0006909Y0013252D01*
G01X0007051Y0013252D01*
G01X0007182Y0013198D01*
G01X0007283Y0013097D01*
G01X0007337Y0012966D01*
G01X0007337Y0012231D01*
G01X0007283Y0012099D01*
G01X0007182Y0011999D01*
G01X0007051Y0011945D01*
G01X0006909Y0011945D01*
G37*
G36*
G01X0003417Y0006113D02*
G01X0003417Y0006113D01*
G01X0003299Y0006162D01*
G01X0003209Y0006252D01*
G01X0003160Y0006369D01*
G01X0003160Y0007017D01*
G01X0003209Y0007134D01*
G01X0003299Y0007224D01*
G01X0003417Y0007273D01*
G01X0003544Y0007273D01*
G01X0003662Y0007224D01*
G01X0003752Y0007134D01*
G01X0003800Y0007017D01*
G01X0003800Y0006369D01*
G01X0003752Y0006252D01*
G01X0003662Y0006162D01*
G01X0003544Y0006113D01*
G01X0003417Y0006113D01*
G37*
G36*
G01X0004417Y0006113D02*
G01X0004417Y0006113D01*
G01X0004299Y0006162D01*
G01X0004209Y0006252D01*
G01X0004160Y0006369D01*
G01X0004160Y0007017D01*
G01X0004209Y0007134D01*
G01X0004299Y0007224D01*
G01X0004417Y0007273D01*
G01X0004544Y0007273D01*
G01X0004662Y0007224D01*
G01X0004752Y0007134D01*
G01X0004800Y0007017D01*
G01X0004800Y0006369D01*
G01X0004752Y0006252D01*
G01X0004662Y0006162D01*
G01X0004544Y0006113D01*
G01X0004417Y0006113D01*
G37*
G36*
G01X0006417Y0006113D02*
G01X0006417Y0006113D01*
G01X0006299Y0006162D01*
G01X0006209Y0006252D01*
G01X0006160Y0006369D01*
G01X0006160Y0007017D01*
G01X0006209Y0007134D01*
G01X0006299Y0007224D01*
G01X0006417Y0007273D01*
G01X0006544Y0007273D01*
G01X0006662Y0007224D01*
G01X0006752Y0007134D01*
G01X0006800Y0007017D01*
G01X0006800Y0006369D01*
G01X0006752Y0006252D01*
G01X0006662Y0006162D01*
G01X0006544Y0006113D01*
G01X0006417Y0006113D01*
G37*
G36*
G01X0007417Y0006113D02*
G01X0007417Y0006113D01*
G01X0007299Y0006162D01*
G01X0007209Y0006252D01*
G01X0007160Y0006369D01*
G01X0007160Y0007017D01*
G01X0007209Y0007134D01*
G01X0007299Y0007224D01*
G01X0007417Y0007273D01*
G01X0007544Y0007273D01*
G01X0007662Y0007224D01*
G01X0007752Y0007134D01*
G01X0007800Y0007017D01*
G01X0007800Y0006369D01*
G01X0007752Y0006252D01*
G01X0007662Y0006162D01*
G01X0007544Y0006113D01*
G01X0007417Y0006113D01*
G37*
G36*
G01X0008417Y0006113D02*
G01X0008417Y0006113D01*
G01X0008299Y0006162D01*
G01X0008209Y0006252D01*
G01X0008160Y0006369D01*
G01X0008160Y0007017D01*
G01X0008209Y0007134D01*
G01X0008299Y0007224D01*
G01X0008417Y0007273D01*
G01X0008544Y0007273D01*
G01X0008662Y0007224D01*
G01X0008752Y0007134D01*
G01X0008800Y0007017D01*
G01X0008800Y0006369D01*
G01X0008752Y0006252D01*
G01X0008662Y0006162D01*
G01X0008544Y0006113D01*
G01X0008417Y0006113D01*
G37*
G36*
G01X0011417Y0006113D02*
G01X0011417Y0006113D01*
G01X0011299Y0006162D01*
G01X0011209Y0006252D01*
G01X0011160Y0006369D01*
G01X0011160Y0007017D01*
G01X0011209Y0007134D01*
G01X0011299Y0007224D01*
G01X0011417Y0007273D01*
G01X0011544Y0007273D01*
G01X0011662Y0007224D01*
G01X0011752Y0007134D01*
G01X0011800Y0007017D01*
G01X0011800Y0006369D01*
G01X0011752Y0006252D01*
G01X0011662Y0006162D01*
G01X0011544Y0006113D01*
G01X0011417Y0006113D01*
G37*
G36*
G01X0009417Y0006113D02*
G01X0009417Y0006113D01*
G01X0009299Y0006162D01*
G01X0009209Y0006252D01*
G01X0009160Y0006369D01*
G01X0009160Y0007017D01*
G01X0009209Y0007134D01*
G01X0009299Y0007224D01*
G01X0009417Y0007273D01*
G01X0009544Y0007273D01*
G01X0009662Y0007224D01*
G01X0009752Y0007134D01*
G01X0009800Y0007017D01*
G01X0009800Y0006369D01*
G01X0009752Y0006252D01*
G01X0009662Y0006162D01*
G01X0009544Y0006113D01*
G01X0009417Y0006113D01*
G37*
G36*
G01X0010417Y0006113D02*
G01X0010417Y0006113D01*
G01X0010299Y0006162D01*
G01X0010209Y0006252D01*
G01X0010160Y0006369D01*
G01X0010160Y0007017D01*
G01X0010209Y0007134D01*
G01X0010299Y0007224D01*
G01X0010417Y0007273D01*
G01X0010544Y0007273D01*
G01X0010662Y0007224D01*
G01X0010752Y0007134D01*
G01X0010800Y0007017D01*
G01X0010800Y0006369D01*
G01X0010752Y0006252D01*
G01X0010662Y0006162D01*
G01X0010544Y0006113D01*
G01X0010417Y0006113D01*
G37*
G36*
G01X0002970Y0019809D02*
G01X0002970Y0019809D01*
G01X0002935Y0019844D01*
G01X0002935Y0020494D01*
G01X0002970Y0020529D01*
G01X0003620Y0020529D01*
G01X0003655Y0020494D01*
G01X0003655Y0019844D01*
G01X0003620Y0019809D01*
G01X0002970Y0019809D01*
G37*
G36*
G01X0021146Y0019809D02*
G01X0021146Y0019809D01*
G01X0020935Y0020020D01*
G01X0020935Y0020318D01*
G01X0021146Y0020529D01*
G01X0021444Y0020529D01*
G01X0021655Y0020318D01*
G01X0021655Y0020020D01*
G01X0021444Y0019809D01*
G01X0021146Y0019809D01*
G37*
G36*
G01X0020146Y0019809D02*
G01X0020146Y0019809D01*
G01X0019935Y0020020D01*
G01X0019935Y0020318D01*
G01X0020146Y0020529D01*
G01X0020444Y0020529D01*
G01X0020655Y0020318D01*
G01X0020655Y0020020D01*
G01X0020444Y0019809D01*
G01X0020146Y0019809D01*
G37*
G36*
G01X0019146Y0019809D02*
G01X0019146Y0019809D01*
G01X0018935Y0020020D01*
G01X0018935Y0020318D01*
G01X0019146Y0020529D01*
G01X0019444Y0020529D01*
G01X0019655Y0020318D01*
G01X0019655Y0020020D01*
G01X0019444Y0019809D01*
G01X0019146Y0019809D01*
G37*
G36*
G01X0018146Y0019809D02*
G01X0018146Y0019809D01*
G01X0017935Y0020020D01*
G01X0017935Y0020318D01*
G01X0018146Y0020529D01*
G01X0018444Y0020529D01*
G01X0018655Y0020318D01*
G01X0018655Y0020020D01*
G01X0018444Y0019809D01*
G01X0018146Y0019809D01*
G37*
G36*
G01X0017146Y0019809D02*
G01X0017146Y0019809D01*
G01X0016935Y0020020D01*
G01X0016935Y0020318D01*
G01X0017146Y0020529D01*
G01X0017444Y0020529D01*
G01X0017655Y0020318D01*
G01X0017655Y0020020D01*
G01X0017444Y0019809D01*
G01X0017146Y0019809D01*
G37*
G36*
G01X0016146Y0019809D02*
G01X0016146Y0019809D01*
G01X0015935Y0020020D01*
G01X0015935Y0020318D01*
G01X0016146Y0020529D01*
G01X0016444Y0020529D01*
G01X0016655Y0020318D01*
G01X0016655Y0020020D01*
G01X0016444Y0019809D01*
G01X0016146Y0019809D01*
G37*
G36*
G01X0014146Y0019809D02*
G01X0014146Y0019809D01*
G01X0013935Y0020020D01*
G01X0013935Y0020318D01*
G01X0014146Y0020529D01*
G01X0014444Y0020529D01*
G01X0014655Y0020318D01*
G01X0014655Y0020020D01*
G01X0014444Y0019809D01*
G01X0014146Y0019809D01*
G37*
G36*
G01X0003146Y0020809D02*
G01X0003146Y0020809D01*
G01X0002935Y0021020D01*
G01X0002935Y0021318D01*
G01X0003146Y0021529D01*
G01X0003444Y0021529D01*
G01X0003655Y0021318D01*
G01X0003655Y0021020D01*
G01X0003444Y0020809D01*
G01X0003146Y0020809D01*
G37*
G36*
G01X0012146Y0019809D02*
G01X0012146Y0019809D01*
G01X0011935Y0020020D01*
G01X0011935Y0020318D01*
G01X0012146Y0020529D01*
G01X0012444Y0020529D01*
G01X0012655Y0020318D01*
G01X0012655Y0020020D01*
G01X0012444Y0019809D01*
G01X0012146Y0019809D01*
G37*
G36*
G01X0011146Y0019809D02*
G01X0011146Y0019809D01*
G01X0010935Y0020020D01*
G01X0010935Y0020318D01*
G01X0011146Y0020529D01*
G01X0011444Y0020529D01*
G01X0011655Y0020318D01*
G01X0011655Y0020020D01*
G01X0011444Y0019809D01*
G01X0011146Y0019809D01*
G37*
G36*
G01X0008146Y0020809D02*
G01X0008146Y0020809D01*
G01X0007935Y0021020D01*
G01X0007935Y0021318D01*
G01X0008146Y0021529D01*
G01X0008444Y0021529D01*
G01X0008655Y0021318D01*
G01X0008655Y0021020D01*
G01X0008444Y0020809D01*
G01X0008146Y0020809D01*
G37*
G36*
G01X0007146Y0020809D02*
G01X0007146Y0020809D01*
G01X0006935Y0021020D01*
G01X0006935Y0021318D01*
G01X0007146Y0021529D01*
G01X0007444Y0021529D01*
G01X0007655Y0021318D01*
G01X0007655Y0021020D01*
G01X0007444Y0020809D01*
G01X0007146Y0020809D01*
G37*
G36*
G01X0006146Y0020809D02*
G01X0006146Y0020809D01*
G01X0005935Y0021020D01*
G01X0005935Y0021318D01*
G01X0006146Y0021529D01*
G01X0006444Y0021529D01*
G01X0006655Y0021318D01*
G01X0006655Y0021020D01*
G01X0006444Y0020809D01*
G01X0006146Y0020809D01*
G37*
G36*
G01X0004146Y0020809D02*
G01X0004146Y0020809D01*
G01X0003935Y0021020D01*
G01X0003935Y0021318D01*
G01X0004146Y0021529D01*
G01X0004444Y0021529D01*
G01X0004655Y0021318D01*
G01X0004655Y0021020D01*
G01X0004444Y0020809D01*
G01X0004146Y0020809D01*
G37*
G36*
G01X0022146Y0020809D02*
G01X0022146Y0020809D01*
G01X0021935Y0021020D01*
G01X0021935Y0021318D01*
G01X0022146Y0021529D01*
G01X0022444Y0021529D01*
G01X0022655Y0021318D01*
G01X0022655Y0021020D01*
G01X0022444Y0020809D01*
G01X0022146Y0020809D01*
G37*
G36*
G01X0021146Y0020809D02*
G01X0021146Y0020809D01*
G01X0020935Y0021020D01*
G01X0020935Y0021318D01*
G01X0021146Y0021529D01*
G01X0021444Y0021529D01*
G01X0021655Y0021318D01*
G01X0021655Y0021020D01*
G01X0021444Y0020809D01*
G01X0021146Y0020809D01*
G37*
G36*
G01X0020146Y0020809D02*
G01X0020146Y0020809D01*
G01X0019935Y0021020D01*
G01X0019935Y0021318D01*
G01X0020146Y0021529D01*
G01X0020444Y0021529D01*
G01X0020655Y0021318D01*
G01X0020655Y0021020D01*
G01X0020444Y0020809D01*
G01X0020146Y0020809D01*
G37*
G36*
G01X0018146Y0020809D02*
G01X0018146Y0020809D01*
G01X0017935Y0021020D01*
G01X0017935Y0021318D01*
G01X0018146Y0021529D01*
G01X0018444Y0021529D01*
G01X0018655Y0021318D01*
G01X0018655Y0021020D01*
G01X0018444Y0020809D01*
G01X0018146Y0020809D01*
G37*
G36*
G01X0016146Y0020809D02*
G01X0016146Y0020809D01*
G01X0015935Y0021020D01*
G01X0015935Y0021318D01*
G01X0016146Y0021529D01*
G01X0016444Y0021529D01*
G01X0016655Y0021318D01*
G01X0016655Y0021020D01*
G01X0016444Y0020809D01*
G01X0016146Y0020809D01*
G37*
G36*
G01X0015146Y0020809D02*
G01X0015146Y0020809D01*
G01X0014935Y0021020D01*
G01X0014935Y0021318D01*
G01X0015146Y0021529D01*
G01X0015444Y0021529D01*
G01X0015655Y0021318D01*
G01X0015655Y0021020D01*
G01X0015444Y0020809D01*
G01X0015146Y0020809D01*
G37*
G36*
G01X0014146Y0020809D02*
G01X0014146Y0020809D01*
G01X0013935Y0021020D01*
G01X0013935Y0021318D01*
G01X0014146Y0021529D01*
G01X0014444Y0021529D01*
G01X0014655Y0021318D01*
G01X0014655Y0021020D01*
G01X0014444Y0020809D01*
G01X0014146Y0020809D01*
G37*
G36*
G01X0013146Y0020809D02*
G01X0013146Y0020809D01*
G01X0012935Y0021020D01*
G01X0012935Y0021318D01*
G01X0013146Y0021529D01*
G01X0013444Y0021529D01*
G01X0013655Y0021318D01*
G01X0013655Y0021020D01*
G01X0013444Y0020809D01*
G01X0013146Y0020809D01*
G37*
G36*
G01X0011146Y0020809D02*
G01X0011146Y0020809D01*
G01X0010935Y0021020D01*
G01X0010935Y0021318D01*
G01X0011146Y0021529D01*
G01X0011444Y0021529D01*
G01X0011655Y0021318D01*
G01X0011655Y0021020D01*
G01X0011444Y0020809D01*
G01X0011146Y0020809D01*
G37*
G36*
G01X0010146Y0020809D02*
G01X0010146Y0020809D01*
G01X0009935Y0021020D01*
G01X0009935Y0021318D01*
G01X0010146Y0021529D01*
G01X0010444Y0021529D01*
G01X0010655Y0021318D01*
G01X0010655Y0021020D01*
G01X0010444Y0020809D01*
G01X0010146Y0020809D01*
G37*
G36*
G01X0010146Y0019809D02*
G01X0010146Y0019809D01*
G01X0009935Y0020020D01*
G01X0009935Y0020318D01*
G01X0010146Y0020529D01*
G01X0010444Y0020529D01*
G01X0010655Y0020318D01*
G01X0010655Y0020020D01*
G01X0010444Y0019809D01*
G01X0010146Y0019809D01*
G37*
G36*
G01X0023270Y0011345D02*
G01X0023270Y0011345D01*
G01X0023059Y0011556D01*
G01X0023059Y0011854D01*
G01X0023270Y0012065D01*
G01X0023568Y0012065D01*
G01X0023779Y0011854D01*
G01X0023779Y0011556D01*
G01X0023568Y0011345D01*
G01X0023270Y0011345D01*
G37*
G36*
G01X0013146Y0019809D02*
G01X0013146Y0019809D01*
G01X0012935Y0020020D01*
G01X0012935Y0020318D01*
G01X0013146Y0020529D01*
G01X0013444Y0020529D01*
G01X0013655Y0020318D01*
G01X0013655Y0020020D01*
G01X0013444Y0019809D01*
G01X0013146Y0019809D01*
G37*
G36*
G01X0008146Y0019809D02*
G01X0008146Y0019809D01*
G01X0007935Y0020020D01*
G01X0007935Y0020318D01*
G01X0008146Y0020529D01*
G01X0008444Y0020529D01*
G01X0008655Y0020318D01*
G01X0008655Y0020020D01*
G01X0008444Y0019809D01*
G01X0008146Y0019809D01*
G37*
G36*
G01X0009146Y0019809D02*
G01X0009146Y0019809D01*
G01X0008935Y0020020D01*
G01X0008935Y0020318D01*
G01X0009146Y0020529D01*
G01X0009444Y0020529D01*
G01X0009655Y0020318D01*
G01X0009655Y0020020D01*
G01X0009444Y0019809D01*
G01X0009146Y0019809D01*
G37*
G36*
G01X0006146Y0019809D02*
G01X0006146Y0019809D01*
G01X0005935Y0020020D01*
G01X0005935Y0020318D01*
G01X0006146Y0020529D01*
G01X0006444Y0020529D01*
G01X0006655Y0020318D01*
G01X0006655Y0020020D01*
G01X0006444Y0019809D01*
G01X0006146Y0019809D01*
G37*
G36*
G01X0004146Y0019809D02*
G01X0004146Y0019809D01*
G01X0003935Y0020020D01*
G01X0003935Y0020318D01*
G01X0004146Y0020529D01*
G01X0004444Y0020529D01*
G01X0004655Y0020318D01*
G01X0004655Y0020020D01*
G01X0004444Y0019809D01*
G01X0004146Y0019809D01*
G37*
G36*
G01X0005146Y0019809D02*
G01X0005146Y0019809D01*
G01X0004935Y0020020D01*
G01X0004935Y0020318D01*
G01X0005146Y0020529D01*
G01X0005444Y0020529D01*
G01X0005655Y0020318D01*
G01X0005655Y0020020D01*
G01X0005444Y0019809D01*
G01X0005146Y0019809D01*
G37*
G36*
G01X0008241Y0015034D02*
G01X0008241Y0015034D01*
G01X0008054Y0015222D01*
G01X0008054Y0015487D01*
G01X0008241Y0015674D01*
G01X0008507Y0015674D01*
G01X0008694Y0015487D01*
G01X0008694Y0015222D01*
G01X0008507Y0015034D01*
G01X0008241Y0015034D01*
G37*
G36*
G01X0007241Y0015034D02*
G01X0007241Y0015034D01*
G01X0007054Y0015222D01*
G01X0007054Y0015487D01*
G01X0007241Y0015674D01*
G01X0007507Y0015674D01*
G01X0007694Y0015487D01*
G01X0007694Y0015222D01*
G01X0007507Y0015034D01*
G01X0007241Y0015034D01*
G37*
G36*
G01X0006379Y0015034D02*
G01X0006379Y0015034D01*
G01X0006192Y0015222D01*
G01X0006192Y0015487D01*
G01X0006379Y0015674D01*
G01X0006644Y0015674D01*
G01X0006832Y0015487D01*
G01X0006832Y0015222D01*
G01X0006644Y0015034D01*
G01X0006379Y0015034D01*
G37*
G36*
G01X0011409Y0013091D02*
G01X0011409Y0013091D01*
G01X0011409Y0013674D01*
G01X0011463Y0013657D01*
G01X0011519Y0013628D01*
G01X0011570Y0013592D01*
G01X0011614Y0013548D01*
G01X0011650Y0013497D01*
G01X0011679Y0013441D01*
G01X0011698Y0013382D01*
G01X0011708Y0013320D01*
G01X0011708Y0013091D01*
G01X0011409Y0013091D01*
G37*
G36*
G01X0018134Y0013091D02*
G01X0018134Y0013091D01*
G01X0018134Y0013674D01*
G01X0018188Y0013657D01*
G01X0018243Y0013628D01*
G01X0018294Y0013592D01*
G01X0018338Y0013548D01*
G01X0018375Y0013497D01*
G01X0018403Y0013441D01*
G01X0018423Y0013382D01*
G01X0018432Y0013320D01*
G01X0018432Y0013091D01*
G01X0018134Y0013091D01*
G37*
G36*
G01X0008079Y0012697D02*
G01X0008079Y0012697D01*
G01X0008079Y0013281D01*
G01X0008133Y0013263D01*
G01X0008188Y0013235D01*
G01X0008239Y0013198D01*
G01X0008283Y0013154D01*
G01X0008320Y0013103D01*
G01X0008348Y0013048D01*
G01X0008367Y0012988D01*
G01X0008377Y0012926D01*
G01X0008377Y0012697D01*
G01X0008079Y0012697D01*
G37*
G36*
G01X0011409Y0012894D02*
G01X0011409Y0012894D01*
G01X0011708Y0012894D01*
G01X0011708Y0012664D01*
G01X0011698Y0012602D01*
G01X0011679Y0012543D01*
G01X0011650Y0012487D01*
G01X0011614Y0012437D01*
G01X0011570Y0012393D01*
G01X0011519Y0012356D01*
G01X0011463Y0012327D01*
G01X0011409Y0012310D01*
G01X0011409Y0012894D01*
G37*
G36*
G01X0008079Y0012500D02*
G01X0008079Y0012500D01*
G01X0008377Y0012500D01*
G01X0008377Y0012270D01*
G01X0008367Y0012209D01*
G01X0008348Y0012149D01*
G01X0008320Y0012094D01*
G01X0008283Y0012043D01*
G01X0008239Y0011999D01*
G01X0008188Y0011962D01*
G01X0008133Y0011934D01*
G01X0008079Y0011916D01*
G01X0008079Y0012500D01*
G37*
G36*
G01X0018134Y0012894D02*
G01X0018134Y0012894D01*
G01X0018432Y0012894D01*
G01X0018432Y0012664D01*
G01X0018423Y0012602D01*
G01X0018403Y0012543D01*
G01X0018375Y0012487D01*
G01X0018338Y0012437D01*
G01X0018294Y0012393D01*
G01X0018243Y0012356D01*
G01X0018188Y0012327D01*
G01X0018134Y0012310D01*
G01X0018134Y0012894D01*
G37*
G36*
G01X0010914Y0013091D02*
G01X0010914Y0013091D01*
G01X0010914Y0013320D01*
G01X0010924Y0013382D01*
G01X0010943Y0013441D01*
G01X0010972Y0013497D01*
G01X0011008Y0013548D01*
G01X0011052Y0013592D01*
G01X0011103Y0013628D01*
G01X0011159Y0013657D01*
G01X0011213Y0013674D01*
G01X0011213Y0013091D01*
G01X0010914Y0013091D01*
G37*
G36*
G01X0007583Y0012697D02*
G01X0007583Y0012697D01*
G01X0007583Y0012926D01*
G01X0007593Y0012988D01*
G01X0007613Y0013048D01*
G01X0007641Y0013103D01*
G01X0007678Y0013154D01*
G01X0007722Y0013198D01*
G01X0007772Y0013235D01*
G01X0007828Y0013263D01*
G01X0007882Y0013281D01*
G01X0007882Y0012697D01*
G01X0007583Y0012697D01*
G37*
G36*
G01X0017639Y0013091D02*
G01X0017639Y0013091D01*
G01X0017639Y0013320D01*
G01X0017648Y0013382D01*
G01X0017668Y0013441D01*
G01X0017696Y0013497D01*
G01X0017733Y0013548D01*
G01X0017777Y0013592D01*
G01X0017827Y0013628D01*
G01X0017883Y0013657D01*
G01X0017937Y0013674D01*
G01X0017937Y0013091D01*
G01X0017639Y0013091D01*
G37*
G36*
G01X0007828Y0011934D02*
G01X0007828Y0011934D01*
G01X0007772Y0011962D01*
G01X0007722Y0011999D01*
G01X0007678Y0012043D01*
G01X0007641Y0012094D01*
G01X0007613Y0012149D01*
G01X0007593Y0012209D01*
G01X0007583Y0012270D01*
G01X0007583Y0012500D01*
G01X0007882Y0012500D01*
G01X0007882Y0011916D01*
G01X0007828Y0011934D01*
G37*
G36*
G01X0011159Y0012327D02*
G01X0011159Y0012327D01*
G01X0011103Y0012356D01*
G01X0011052Y0012393D01*
G01X0011008Y0012437D01*
G01X0010972Y0012487D01*
G01X0010943Y0012543D01*
G01X0010924Y0012602D01*
G01X0010914Y0012664D01*
G01X0010914Y0012894D01*
G01X0011213Y0012894D01*
G01X0011213Y0012310D01*
G01X0011159Y0012327D01*
G37*
G36*
G01X0017883Y0012327D02*
G01X0017883Y0012327D01*
G01X0017827Y0012356D01*
G01X0017777Y0012393D01*
G01X0017733Y0012437D01*
G01X0017696Y0012487D01*
G01X0017668Y0012543D01*
G01X0017648Y0012602D01*
G01X0017639Y0012664D01*
G01X0017639Y0012894D01*
G01X0017937Y0012894D01*
G01X0017937Y0012310D01*
G01X0017883Y0012327D01*
G37*
G36*
G01X0005560Y0006773D02*
G01X0005560Y0006773D01*
G01X0005560Y0007305D01*
G01X0005565Y0007304D01*
G01X0005619Y0007287D01*
G01X0005669Y0007261D01*
G01X0005715Y0007228D01*
G01X0005755Y0007187D01*
G01X0005788Y0007142D01*
G01X0005814Y0007091D01*
G01X0005831Y0007037D01*
G01X0005840Y0006981D01*
G01X0005840Y0006773D01*
G01X0005560Y0006773D01*
G37*
G36*
G01X0005560Y0006613D02*
G01X0005560Y0006613D01*
G01X0005840Y0006613D01*
G01X0005840Y0006405D01*
G01X0005831Y0006349D01*
G01X0005814Y0006295D01*
G01X0005788Y0006244D01*
G01X0005755Y0006198D01*
G01X0005715Y0006158D01*
G01X0005669Y0006125D01*
G01X0005619Y0006099D01*
G01X0005565Y0006082D01*
G01X0005560Y0006081D01*
G01X0005560Y0006613D01*
G37*
G36*
G01X0005120Y0006773D02*
G01X0005120Y0006773D01*
G01X0005120Y0006981D01*
G01X0005129Y0007037D01*
G01X0005147Y0007091D01*
G01X0005172Y0007142D01*
G01X0005206Y0007187D01*
G01X0005246Y0007228D01*
G01X0005292Y0007261D01*
G01X0005342Y0007287D01*
G01X0005396Y0007304D01*
G01X0005400Y0007305D01*
G01X0005400Y0006773D01*
G01X0005120Y0006773D01*
G37*
G36*
G01X0005396Y0006082D02*
G01X0005396Y0006082D01*
G01X0005342Y0006099D01*
G01X0005292Y0006125D01*
G01X0005246Y0006158D01*
G01X0005206Y0006198D01*
G01X0005172Y0006244D01*
G01X0005147Y0006295D01*
G01X0005129Y0006349D01*
G01X0005120Y0006405D01*
G01X0005120Y0006613D01*
G01X0005400Y0006613D01*
G01X0005400Y0006081D01*
G01X0005396Y0006082D01*
G37*
G36*
G01X0005395Y0021269D02*
G01X0005395Y0021269D01*
G01X0005395Y0021569D01*
G01X0005461Y0021569D01*
G01X0005695Y0021335D01*
G01X0005695Y0021269D01*
G01X0005395Y0021269D01*
G37*
G36*
G01X0019395Y0021269D02*
G01X0019395Y0021269D01*
G01X0019395Y0021569D01*
G01X0019461Y0021569D01*
G01X0019695Y0021335D01*
G01X0019695Y0021269D01*
G01X0019395Y0021269D01*
G37*
G36*
G01X0022395Y0020269D02*
G01X0022395Y0020269D01*
G01X0022395Y0020569D01*
G01X0022461Y0020569D01*
G01X0022695Y0020335D01*
G01X0022695Y0020269D01*
G01X0022395Y0020269D01*
G37*
G36*
G01X0017395Y0021269D02*
G01X0017395Y0021269D01*
G01X0017395Y0021569D01*
G01X0017461Y0021569D01*
G01X0017695Y0021335D01*
G01X0017695Y0021269D01*
G01X0017395Y0021269D01*
G37*
G36*
G01X0012395Y0021269D02*
G01X0012395Y0021269D01*
G01X0012395Y0021569D01*
G01X0012461Y0021569D01*
G01X0012695Y0021335D01*
G01X0012695Y0021269D01*
G01X0012395Y0021269D01*
G37*
G36*
G01X0015395Y0020269D02*
G01X0015395Y0020269D01*
G01X0015395Y0020569D01*
G01X0015461Y0020569D01*
G01X0015695Y0020335D01*
G01X0015695Y0020269D01*
G01X0015395Y0020269D01*
G37*
G36*
G01X0009395Y0021269D02*
G01X0009395Y0021269D01*
G01X0009395Y0021569D01*
G01X0009461Y0021569D01*
G01X0009695Y0021335D01*
G01X0009695Y0021269D01*
G01X0009395Y0021269D01*
G37*
G36*
G01X0024519Y0011805D02*
G01X0024519Y0011805D01*
G01X0024519Y0012105D01*
G01X0024585Y0012105D01*
G01X0024819Y0011870D01*
G01X0024819Y0011805D01*
G01X0024519Y0011805D01*
G37*
G36*
G01X0007395Y0020269D02*
G01X0007395Y0020269D01*
G01X0007395Y0020569D01*
G01X0007461Y0020569D01*
G01X0007695Y0020335D01*
G01X0007695Y0020269D01*
G01X0007395Y0020269D01*
G37*
G36*
G01X0008895Y0021269D02*
G01X0008895Y0021269D01*
G01X0008895Y0021335D01*
G01X0009130Y0021569D01*
G01X0009195Y0021569D01*
G01X0009195Y0021269D01*
G01X0008895Y0021269D01*
G37*
G36*
G01X0022395Y0019769D02*
G01X0022395Y0019769D01*
G01X0022395Y0020069D01*
G01X0022695Y0020069D01*
G01X0022695Y0020004D01*
G01X0022461Y0019769D01*
G01X0022395Y0019769D01*
G37*
G36*
G01X0015395Y0019769D02*
G01X0015395Y0019769D01*
G01X0015395Y0020069D01*
G01X0015695Y0020069D01*
G01X0015695Y0020004D01*
G01X0015461Y0019769D01*
G01X0015395Y0019769D01*
G37*
G36*
G01X0007395Y0019769D02*
G01X0007395Y0019769D01*
G01X0007395Y0020069D01*
G01X0007695Y0020069D01*
G01X0007695Y0020004D01*
G01X0007461Y0019769D01*
G01X0007395Y0019769D01*
G37*
G36*
G01X0006895Y0020269D02*
G01X0006895Y0020269D01*
G01X0006895Y0020335D01*
G01X0007130Y0020569D01*
G01X0007195Y0020569D01*
G01X0007195Y0020269D01*
G01X0006895Y0020269D01*
G37*
G36*
G01X0014895Y0020269D02*
G01X0014895Y0020269D01*
G01X0014895Y0020335D01*
G01X0015130Y0020569D01*
G01X0015195Y0020569D01*
G01X0015195Y0020269D01*
G01X0014895Y0020269D01*
G37*
G36*
G01X0021895Y0020269D02*
G01X0021895Y0020269D01*
G01X0021895Y0020335D01*
G01X0022130Y0020569D01*
G01X0022195Y0020569D01*
G01X0022195Y0020269D01*
G01X0021895Y0020269D01*
G37*
G36*
G01X0005395Y0020769D02*
G01X0005395Y0020769D01*
G01X0005395Y0021069D01*
G01X0005695Y0021069D01*
G01X0005695Y0021004D01*
G01X0005461Y0020769D01*
G01X0005395Y0020769D01*
G37*
G36*
G01X0009395Y0020769D02*
G01X0009395Y0020769D01*
G01X0009395Y0021069D01*
G01X0009695Y0021069D01*
G01X0009695Y0021004D01*
G01X0009461Y0020769D01*
G01X0009395Y0020769D01*
G37*
G36*
G01X0024019Y0011805D02*
G01X0024019Y0011805D01*
G01X0024019Y0011870D01*
G01X0024254Y0012105D01*
G01X0024319Y0012105D01*
G01X0024319Y0011805D01*
G01X0024019Y0011805D01*
G37*
G36*
G01X0024519Y0011305D02*
G01X0024519Y0011305D01*
G01X0024519Y0011605D01*
G01X0024819Y0011605D01*
G01X0024819Y0011539D01*
G01X0024585Y0011305D01*
G01X0024519Y0011305D01*
G37*
G36*
G01X0004895Y0021269D02*
G01X0004895Y0021269D01*
G01X0004895Y0021335D01*
G01X0005130Y0021569D01*
G01X0005195Y0021569D01*
G01X0005195Y0021269D01*
G01X0004895Y0021269D01*
G37*
G36*
G01X0018895Y0021269D02*
G01X0018895Y0021269D01*
G01X0018895Y0021335D01*
G01X0019130Y0021569D01*
G01X0019195Y0021569D01*
G01X0019195Y0021269D01*
G01X0018895Y0021269D01*
G37*
G36*
G01X0019395Y0020769D02*
G01X0019395Y0020769D01*
G01X0019395Y0021069D01*
G01X0019695Y0021069D01*
G01X0019695Y0021004D01*
G01X0019461Y0020769D01*
G01X0019395Y0020769D01*
G37*
G36*
G01X0012395Y0020769D02*
G01X0012395Y0020769D01*
G01X0012395Y0021069D01*
G01X0012695Y0021069D01*
G01X0012695Y0021004D01*
G01X0012461Y0020769D01*
G01X0012395Y0020769D01*
G37*
G36*
G01X0017395Y0020769D02*
G01X0017395Y0020769D01*
G01X0017395Y0021069D01*
G01X0017695Y0021069D01*
G01X0017695Y0021004D01*
G01X0017461Y0020769D01*
G01X0017395Y0020769D01*
G37*
G36*
G01X0016895Y0021269D02*
G01X0016895Y0021269D01*
G01X0016895Y0021335D01*
G01X0017130Y0021569D01*
G01X0017195Y0021569D01*
G01X0017195Y0021269D01*
G01X0016895Y0021269D01*
G37*
G36*
G01X0011895Y0021269D02*
G01X0011895Y0021269D01*
G01X0011895Y0021335D01*
G01X0012130Y0021569D01*
G01X0012195Y0021569D01*
G01X0012195Y0021269D01*
G01X0011895Y0021269D01*
G37*
G36*
G01X0005130Y0020769D02*
G01X0005130Y0020769D01*
G01X0004895Y0021004D01*
G01X0004895Y0021069D01*
G01X0005195Y0021069D01*
G01X0005195Y0020769D01*
G01X0005130Y0020769D01*
G37*
G36*
G01X0009130Y0020769D02*
G01X0009130Y0020769D01*
G01X0008895Y0021004D01*
G01X0008895Y0021069D01*
G01X0009195Y0021069D01*
G01X0009195Y0020769D01*
G01X0009130Y0020769D01*
G37*
G36*
G01X0012130Y0020769D02*
G01X0012130Y0020769D01*
G01X0011895Y0021004D01*
G01X0011895Y0021069D01*
G01X0012195Y0021069D01*
G01X0012195Y0020769D01*
G01X0012130Y0020769D01*
G37*
G36*
G01X0017130Y0020769D02*
G01X0017130Y0020769D01*
G01X0016895Y0021004D01*
G01X0016895Y0021069D01*
G01X0017195Y0021069D01*
G01X0017195Y0020769D01*
G01X0017130Y0020769D01*
G37*
G36*
G01X0019130Y0020769D02*
G01X0019130Y0020769D01*
G01X0018895Y0021004D01*
G01X0018895Y0021069D01*
G01X0019195Y0021069D01*
G01X0019195Y0020769D01*
G01X0019130Y0020769D01*
G37*
G36*
G01X0007130Y0019769D02*
G01X0007130Y0019769D01*
G01X0006895Y0020004D01*
G01X0006895Y0020069D01*
G01X0007195Y0020069D01*
G01X0007195Y0019769D01*
G01X0007130Y0019769D01*
G37*
G36*
G01X0015130Y0019769D02*
G01X0015130Y0019769D01*
G01X0014895Y0020004D01*
G01X0014895Y0020069D01*
G01X0015195Y0020069D01*
G01X0015195Y0019769D01*
G01X0015130Y0019769D01*
G37*
G36*
G01X0022130Y0019769D02*
G01X0022130Y0019769D01*
G01X0021895Y0020004D01*
G01X0021895Y0020069D01*
G01X0022195Y0020069D01*
G01X0022195Y0019769D01*
G01X0022130Y0019769D01*
G37*
G36*
G01X0024254Y0011305D02*
G01X0024254Y0011305D01*
G01X0024019Y0011539D01*
G01X0024019Y0011605D01*
G01X0024319Y0011605D01*
G01X0024319Y0011305D01*
G01X0024254Y0011305D01*
G37*
G36*
G01X0004592Y0015434D02*
G01X0004592Y0015434D01*
G01X0004592Y0015714D01*
G01X0004661Y0015714D01*
G01X0004872Y0015503D01*
G01X0004872Y0015434D01*
G01X0004592Y0015434D01*
G37*
G36*
G01X0004152Y0015434D02*
G01X0004152Y0015434D01*
G01X0004152Y0015503D01*
G01X0004363Y0015714D01*
G01X0004432Y0015714D01*
G01X0004432Y0015434D01*
G01X0004152Y0015434D01*
G37*
G36*
G01X0004592Y0014994D02*
G01X0004592Y0014994D01*
G01X0004592Y0015274D01*
G01X0004872Y0015274D01*
G01X0004872Y0015205D01*
G01X0004661Y0014994D01*
G01X0004592Y0014994D01*
G37*
G36*
G01X0004363Y0014994D02*
G01X0004363Y0014994D01*
G01X0004152Y0015205D01*
G01X0004152Y0015274D01*
G01X0004432Y0015274D01*
G01X0004432Y0014994D01*
G01X0004363Y0014994D01*
G37*
G36*
G01X0015295Y0020169D02*
G01X0015295Y0020169D01*
G01X0015295Y0020169D01*
G01X0015295Y0020169D01*
G01X0015295Y0020169D01*
G01X0015295Y0020169D01*
G37*
G36*
G01X0022295Y0020169D02*
G01X0022295Y0020169D01*
G01X0022295Y0020169D01*
G01X0022295Y0020169D01*
G01X0022295Y0020169D01*
G01X0022295Y0020169D01*
G37*
G36*
G01X0024419Y0011705D02*
G01X0024419Y0011705D01*
G01X0024419Y0011705D01*
G01X0024419Y0011705D01*
G01X0024419Y0011705D01*
G01X0024419Y0011705D01*
G37*
G36*
G01X0012295Y0021169D02*
G01X0012295Y0021169D01*
G01X0012295Y0021169D01*
G01X0012295Y0021169D01*
G01X0012295Y0021169D01*
G01X0012295Y0021169D01*
G37*
G36*
G01X0019295Y0021169D02*
G01X0019295Y0021169D01*
G01X0019295Y0021169D01*
G01X0019295Y0021169D01*
G01X0019295Y0021169D01*
G01X0019295Y0021169D01*
G37*
G36*
G01X0005295Y0021169D02*
G01X0005295Y0021169D01*
G01X0005295Y0021169D01*
G01X0005295Y0021169D01*
G01X0005295Y0021169D01*
G01X0005295Y0021169D01*
G37*
G36*
G01X0017295Y0021169D02*
G01X0017295Y0021169D01*
G01X0017295Y0021169D01*
G01X0017295Y0021169D01*
G01X0017295Y0021169D01*
G01X0017295Y0021169D01*
G37*
G36*
G01X0009295Y0021169D02*
G01X0009295Y0021169D01*
G01X0009295Y0021169D01*
G01X0009295Y0021169D01*
G01X0009295Y0021169D01*
G01X0009295Y0021169D01*
G37*
G36*
G01X0007295Y0020169D02*
G01X0007295Y0020169D01*
G01X0007295Y0020169D01*
G01X0007295Y0020169D01*
G01X0007295Y0020169D01*
G01X0007295Y0020169D01*
G37*
%LPD*%
G54D10*
G01X0020520Y0000351D02*
G01X0020520Y0000701D01*
G01X0020520Y0000701D02*
G01X0020345Y0000701D01*
G01X0020345Y0000701D02*
G01X0020286Y0000643D01*
G01X0020286Y0000643D02*
G01X0020286Y0000584D01*
G01X0020286Y0000584D02*
G01X0020345Y0000526D01*
G01X0020345Y0000526D02*
G01X0020286Y0000467D01*
G01X0020286Y0000467D02*
G01X0020286Y0000409D01*
G01X0020286Y0000409D02*
G01X0020345Y0000351D01*
G01X0020345Y0000351D02*
G01X0020520Y0000351D01*
G01X0020520Y0000526D02*
G01X0020345Y0000526D01*
G01X0020047Y0000701D02*
G01X0019930Y0000701D01*
G01X0020047Y0000701D02*
G01X0020105Y0000643D01*
G01X0020105Y0000643D02*
G01X0020105Y0000409D01*
G01X0020105Y0000409D02*
G01X0020047Y0000351D01*
G01X0020047Y0000351D02*
G01X0019930Y0000351D01*
G01X0019930Y0000351D02*
G01X0019872Y0000409D01*
G01X0019872Y0000409D02*
G01X0019872Y0000643D01*
G01X0019872Y0000643D02*
G01X0019930Y0000701D01*
G01X0019574Y0000701D02*
G01X0019574Y0000351D01*
G01X0019691Y0000701D02*
G01X0019458Y0000701D01*
G01X0019160Y0000701D02*
G01X0019160Y0000351D01*
G01X0019277Y0000701D02*
G01X0019043Y0000701D01*
G01X0018804Y0000701D02*
G01X0018687Y0000701D01*
G01X0018804Y0000701D02*
G01X0018862Y0000643D01*
G01X0018862Y0000643D02*
G01X0018862Y0000409D01*
G01X0018862Y0000409D02*
G01X0018804Y0000351D01*
G01X0018804Y0000351D02*
G01X0018687Y0000351D01*
G01X0018687Y0000351D02*
G01X0018629Y0000409D01*
G01X0018629Y0000409D02*
G01X0018629Y0000643D01*
G01X0018629Y0000643D02*
G01X0018687Y0000701D01*
G01X0018448Y0000701D02*
G01X0018448Y0000351D01*
G01X0018331Y0000584D02*
G01X0018448Y0000701D01*
G01X0018331Y0000584D02*
G01X0018215Y0000701D01*
G01X0018215Y0000701D02*
G01X0018215Y0000351D01*
G54D11*
G01X0003295Y0020169D03*
G54D12*
G01X0004295Y0020169D03*
G01X0005295Y0020169D03*
G01X0006295Y0020169D03*
G01X0007295Y0020169D03*
G01X0008295Y0020169D03*
G01X0003295Y0021169D03*
G01X0004295Y0021169D03*
G01X0005295Y0021169D03*
G01X0006295Y0021169D03*
G01X0007295Y0021169D03*
G01X0008295Y0021169D03*
G01X0009295Y0020169D03*
G01X0009295Y0021169D03*
G01X0010295Y0020169D03*
G01X0011295Y0020169D03*
G01X0012295Y0020169D03*
G01X0013295Y0020169D03*
G01X0014295Y0020169D03*
G01X0015295Y0020169D03*
G01X0010295Y0021169D03*
G01X0011295Y0021169D03*
G01X0012295Y0021169D03*
G01X0013295Y0021169D03*
G01X0014295Y0021169D03*
G01X0015295Y0021169D03*
G01X0016295Y0020169D03*
G01X0016295Y0021169D03*
G01X0017295Y0020169D03*
G01X0018295Y0020169D03*
G01X0019295Y0020169D03*
G01X0020295Y0020169D03*
G01X0021295Y0020169D03*
G01X0022295Y0020169D03*
G01X0017295Y0021169D03*
G01X0018295Y0021169D03*
G01X0019295Y0021169D03*
G01X0020295Y0021169D03*
G01X0021295Y0021169D03*
G01X0022295Y0021169D03*
G54D13*
G01X0023419Y0011705D03*
G01X0024419Y0011705D03*
G54D14*
G01X0003480Y0006953D02*
G01X0003480Y0006433D01*
G01X0004480Y0006433D02*
G01X0004480Y0006953D01*
G01X0005480Y0006953D02*
G01X0005480Y0006433D01*
G01X0006480Y0006433D02*
G01X0006480Y0006953D01*
G01X0007480Y0006953D02*
G01X0007480Y0006433D01*
G01X0008480Y0006433D02*
G01X0008480Y0006953D01*
G01X0009480Y0006953D02*
G01X0009480Y0006433D01*
G01X0010480Y0006433D02*
G01X0010480Y0006953D01*
G01X0011480Y0006953D02*
G01X0011480Y0006433D01*
G54D15*
G01X0007374Y0015354D03*
G01X0008374Y0015354D03*
G01X0004512Y0015354D03*
G01X0006512Y0015354D03*
G54D16*
G01X0010311Y0013289D02*
G01X0010311Y0012695D01*
G01X0011311Y0012695D02*
G01X0011311Y0013289D01*
G01X0012311Y0013289D02*
G01X0012311Y0012695D01*
G01X0013311Y0012695D02*
G01X0013311Y0013289D01*
G01X0006980Y0012895D02*
G01X0006980Y0012302D01*
G01X0007980Y0012302D02*
G01X0007980Y0012895D01*
G01X0015035Y0012695D02*
G01X0015035Y0013289D01*
G01X0016035Y0013289D02*
G01X0016035Y0012695D01*
G01X0017035Y0012695D02*
G01X0017035Y0013289D01*
G01X0018035Y0013289D02*
G01X0018035Y0012695D01*
G01X0015248Y0009352D02*
G01X0015248Y0008758D01*
G01X0016248Y0008758D02*
G01X0016248Y0009352D01*
G54D17*
G01X0015000Y0013020D02*
G01X0015000Y0013440D01*
G01X0015000Y0013440D02*
G01X0013920Y0014520D01*
G01X0015000Y0013020D02*
G01X0015035Y0012992D01*
G54D18*
G01X0013920Y0014520D03*
M02*
