M48
;GenerationSoftware,Autodesk,EAGLE,9.2.2*%
;CreationDate,2019-05-01T02:57:52Z*%
FMAT,2
ICI,OFF
METRIC,TZ,000.000
T5C0.305
T4C0.813
T3C1.000
T2C1.016
T1C2.800
%
G90
M71
T1
X61500Y3500
X3500Y3500
X3500Y52500
X61500Y52500
T2
X18530Y51230
X8370Y51230
X10910Y51230
X13450Y51230
X15990Y51230
X23610Y53770
X21070Y51230
X8370Y53770
X10910Y53770
X13450Y53770
X15990Y53770
X18530Y53770
X21070Y53770
X23610Y51230
X62025Y29730
X26150Y51230
X28690Y51230
X31230Y51230
X33770Y51230
X36310Y51230
X38850Y51230
X26150Y53770
X28690Y53770
X31230Y53770
X33770Y53770
X36310Y53770
X38850Y53770
X41390Y51230
X41390Y53770
X43930Y51230
X46470Y51230
X49010Y51230
X51550Y51230
X54090Y51230
X56630Y51230
X43930Y53770
X46470Y53770
X49010Y53770
X51550Y53770
X54090Y53770
X56630Y53770
X59485Y29730
T3
X31270Y33000
X26190Y33000
X28730Y33000
X41270Y23000
X33810Y33000
X17730Y32000
X20270Y32000
X38190Y33000
X40730Y33000
X43270Y33000
X45810Y33000
X38730Y23000
T4
X8840Y17000
X11380Y17000
X13920Y17000
X16460Y17000
X19000Y17000
X21540Y17000
X26620Y17000
X29160Y17000
X18730Y39000
X21270Y39000
X11460Y39000
X16540Y39000
X24080Y17000
T5
X35357Y36881
M30
